<svg width="24" height="24" viewBox="0 0 24 24" fill="none" xmlns="http://www.w3.org/2000/svg">
<path d="M22.7333 7.29468H1.26691C0.805562 7.29468 0.431641 7.6686 0.431641 8.12994V13.2808C0.431641 13.7421 0.805562 14.116 1.26691 14.116H22.7333C23.1946 14.116 23.5685 13.7421 23.5685 13.2808V8.12994C23.5685 7.66855 23.1946 7.29468 22.7333 7.29468ZM21.898 12.4454H2.10222V8.96516H21.898V12.4454H21.898Z" fill="white"/>
<path d="M20.5958 13.178L19.4615 22.3295H4.51109L3.37648 13.178L1.71875 13.3835L2.94383 23.2675C2.99562 23.6859 3.35117 24 3.77272 24H20.1996C20.6212 24 20.9767 23.6859 21.0288 23.2675L22.2538 13.3835L20.5958 13.178Z" fill="white"/>
<path d="M11.9861 0C8.68538 0 6 2.68538 6 5.98608V8.12995H7.67053V5.98608C7.67053 3.60642 9.60642 1.67053 11.9861 1.67053C14.3657 1.67053 16.3016 3.60642 16.3016 5.98608V8.12995H17.9722V5.98608C17.9722 2.68538 15.2868 0 11.9861 0Z" fill="white"/>
</svg>
