<svg width="200" height="45" viewBox="0 0 200 45" fill="none" xmlns="http://www.w3.org/2000/svg">
<g clip-path="url(#clip0_203_706)">
<path d="M118.125 21.1881C117.409 21.1881 116.783 21.0097 116.335 20.7421C115.888 20.4744 115.53 20.1176 115.172 19.6716C114.903 19.2256 114.724 18.8688 114.545 18.4227C114.456 17.9767 114.366 17.7091 114.366 17.5307C114.366 16.9955 114.456 16.4602 114.724 16.0142C114.993 15.5682 115.261 15.2114 115.709 14.8545C116.067 14.5869 116.514 14.3193 116.872 14.1409C117.32 13.9625 117.678 13.8733 118.036 13.8733C118.394 13.8733 118.841 13.9625 119.289 14.1409C119.736 14.3193 120.094 14.5869 120.452 14.8545C120.81 15.1222 121.168 15.5682 121.347 15.925C121.616 16.371 121.705 16.8171 121.705 17.2631C121.705 17.9767 121.616 18.6011 121.347 19.1364C121.079 19.6716 120.721 20.0284 120.363 20.296C120.005 20.5637 119.557 20.8313 119.11 20.9205C118.841 21.1881 118.483 21.1881 118.125 21.1881Z" fill="white"/>
<path fill-rule="evenodd" clip-rule="evenodd" d="M195.093 17.8876C195.004 16.2819 194.109 14.9438 192.319 14.9438C190.529 14.9438 189.365 16.2819 189.007 17.8876H195.093ZM188.918 21.3665C189.365 23.5075 190.976 24.9347 193.303 24.9347C194.646 24.9347 196.078 24.5779 197.331 24.1319C197.42 24.1319 197.51 24.0427 197.51 24.0427C197.599 24.0427 197.689 24.0427 197.778 24.0427C198.226 24.0427 198.494 24.3103 198.673 24.7563L199.121 26.4512C199.121 26.6296 199.21 26.808 199.21 26.8973C199.21 27.4325 198.852 27.7001 198.405 27.8785C196.704 28.6814 194.377 29.0382 192.498 29.0382C186.949 29.0382 183.638 25.47 183.638 19.9393C183.638 14.6762 187.128 10.9296 192.498 10.9296C194.467 10.9296 196.346 11.6432 197.778 13.0705C199.479 14.8546 199.926 17.0847 199.926 19.404V19.9393C199.926 20.2961 199.837 20.7421 199.568 21.0097C199.3 21.2773 198.763 21.3665 198.405 21.3665H188.918ZM183.638 12.3568L183.28 14.7654C183.19 15.2114 182.922 15.5682 182.385 15.5682C182.295 15.5682 182.295 15.5682 182.206 15.5682H182.116H182.027C181.758 15.479 181.49 15.479 181.221 15.479C180.147 15.479 179.073 16.1035 178.357 16.8171V27.4325C178.357 28.2353 177.91 28.6813 177.104 28.6813H174.598C173.793 28.6813 173.345 28.2353 173.345 27.4325V12.6245C173.345 11.8216 173.793 11.3756 174.598 11.3756H176.746C177.462 11.3756 177.999 11.6432 177.999 12.4461V12.5353C178.984 11.554 180.147 11.0188 181.758 11.0188C182.116 11.0188 182.474 11.108 182.832 11.1972C183.28 11.2864 183.459 11.554 183.459 12C183.638 12.0892 183.638 12.1784 183.638 12.3568ZM166.007 20.0285C166.007 17.7091 165.38 15.033 162.516 15.033C159.652 15.033 158.936 17.5307 158.936 19.9393C158.936 21.3665 159.205 23.2399 160.279 24.3103C160.905 24.8455 161.621 25.1132 162.427 25.1132C165.201 25.0239 166.007 22.3478 166.007 20.0285ZM171.018 20.0285C171.018 25.2916 167.707 29.0382 162.337 29.0382C156.699 29.0382 153.835 25.2916 153.835 19.9393C153.835 14.6762 157.146 10.9296 162.516 10.9296C168.155 10.9296 171.018 14.587 171.018 20.0285ZM142.737 15.033H141.574C141.305 15.033 140.947 15.033 140.679 14.7654C140.41 14.4978 140.41 14.1409 140.41 13.7841V12.5353C140.41 11.9108 140.768 11.4648 141.395 11.4648H142.737V8.16422C142.737 7.36137 143.185 7.09376 143.901 6.91535L146.407 6.64773C146.496 6.64773 146.496 6.64773 146.586 6.64773C147.302 6.64773 147.66 7.09376 147.66 7.8074V11.4648H151.061C151.687 11.4648 152.134 11.7324 152.134 12.4461V14.0517C152.134 14.6762 151.687 15.1222 151.061 15.1222H147.66V22.437C147.66 23.0614 147.66 23.9535 148.018 24.4887C148.286 24.9347 148.823 25.0239 149.271 25.0239C149.987 25.0239 150.613 24.8455 151.329 24.6671C151.508 24.6671 151.597 24.5779 151.776 24.5779C152.224 24.5779 152.492 24.8455 152.582 25.2916L152.94 26.9865C152.94 27.0757 153.029 27.1649 153.029 27.2541C153.029 27.7893 152.761 28.0569 152.313 28.2353C151.06 28.7706 149.718 29.0382 148.376 29.0382C146.854 29.0382 145.064 28.6813 143.99 27.5217C143.722 27.2541 143.543 26.9865 143.364 26.6296C143.095 26.0052 142.916 25.3808 142.827 24.7563C142.737 23.9535 142.737 23.0614 142.737 22.2586V15.033ZM123.227 26.362L123.943 24.2211C124.122 23.7751 124.39 23.4183 124.927 23.4183C125.106 23.4183 125.375 23.5075 125.554 23.5075C127.075 24.0427 128.776 24.4887 130.476 24.4887C132.087 24.4887 133.966 23.7751 133.966 21.9018C133.966 20.4745 132.892 19.7609 131.729 19.2256L127.344 16.9955C124.838 15.7466 123.137 13.6949 123.137 10.8404C123.137 6.46932 127.433 4.06079 131.371 4.06079C133.608 4.06079 135.577 4.41761 137.636 5.30966C138.083 5.48807 138.531 5.84489 138.531 6.38012C138.531 6.55853 138.441 6.73694 138.441 7.00455L137.636 9.05627C137.457 9.50229 137.188 9.85911 136.651 9.85911C136.383 9.85911 136.204 9.76991 136.025 9.6807C134.772 9.14547 133.071 8.69945 131.729 8.69945C130.387 8.69945 128.686 9.23468 128.686 10.8404C128.686 12.0892 129.939 12.8029 130.834 13.2489L134.593 15.033C137.367 16.3711 139.336 18.3336 139.336 21.545C139.336 26.4512 135.309 29.2166 130.655 29.2166C128.507 29.2166 126.091 28.8598 124.032 28.1461C123.585 27.9677 123.227 27.7001 123.227 27.1649C123.137 26.7188 123.137 26.5404 123.227 26.362ZM99.0624 16.5495V16.6387C99.0624 16.8171 99.0624 17.0847 99.0624 17.2631C99.0624 17.8876 99.0624 18.4228 99.0624 19.0472C99.0624 19.9393 99.0624 20.8313 99.0624 21.7234V27.3433C99.0624 28.1461 98.7044 28.5921 97.8094 28.5921H95.5719C94.7665 28.5921 94.319 28.1461 94.319 27.3433V18.066C94.319 17.3523 94.2295 16.3711 93.782 15.7466C93.424 15.3006 92.7975 15.2114 92.2605 15.2114C91.0076 15.2114 89.8441 15.925 88.8596 16.7279V27.3433C88.8596 28.1461 88.4121 28.5921 87.6067 28.5921H85.1902C84.3847 28.5921 83.9372 28.1461 83.9372 27.3433V12.5353C83.9372 11.8216 84.3847 11.3756 85.1902 11.3756H87.4277C88.1436 11.3756 88.5911 11.6432 88.6806 12.3568V12.4461C90.0231 11.4648 91.634 10.9296 93.3345 10.9296C95.035 10.9296 96.7354 11.554 97.7199 12.8921C99.3308 11.554 101.389 10.9296 103.448 10.9296C104.611 10.9296 105.685 11.1972 106.67 11.7324C107.475 12.1784 108.102 12.8921 108.549 13.6057C109.355 15.1222 109.444 16.9955 109.444 18.6904V27.2541C109.444 28.0569 109.086 28.5029 108.191 28.5029H105.775C104.969 28.5029 104.522 28.0569 104.522 27.2541V18.066C104.522 17.3523 104.432 16.3711 103.985 15.8358C103.627 15.3898 103 15.3006 102.374 15.3006C101.389 15.3006 100.047 15.8358 99.0624 16.5495ZM77.0459 27.4325C75.5245 28.4137 73.824 29.0382 72.0341 29.0382C67.9172 29.0382 66.3062 26.362 66.3062 22.6154V12.5353C66.3062 11.7324 66.8432 11.3756 67.5592 11.3756H69.9756C70.7811 11.3756 71.2286 11.7324 71.2286 12.5353V21.8126C71.2286 22.5262 71.3181 23.5075 71.7656 24.0427C72.1236 24.4887 72.75 24.5779 73.287 24.5779C74.4505 24.5779 75.8825 23.9535 76.8669 23.1506V12.5353C76.8669 11.7324 77.3144 11.3756 78.1199 11.3756H80.5363C81.3418 11.3756 81.7893 11.7324 81.7893 12.5353V27.2541C81.7893 28.1461 81.4313 28.5921 80.5363 28.5921H78.3884C77.7619 28.5921 77.2249 28.2353 77.1354 27.5217L77.0459 27.4325ZM55.3875 24.2211H63.6213C64.3373 24.2211 64.8743 24.6671 64.8743 25.3808V27.4325C64.8743 28.2353 64.4268 28.6813 63.6213 28.6813H51.5391C50.6441 28.6813 50.2861 28.2353 50.2861 27.3433V5.66648C50.2861 4.95284 50.7336 4.41761 51.5391 4.41761H54.224C55.119 4.41761 55.477 4.86364 55.477 5.66648V24.2211H55.3875Z" fill="white"/>
<path fill-rule="evenodd" clip-rule="evenodd" d="M21.7364 15.6574C21.1099 14.1409 19.9465 11.108 19.0515 9.9483C18.067 8.69943 15.8296 8.075 14.3976 7.80738H14.3081H14.2186C13.4131 7.62897 12.5181 7.45056 11.7127 7.45056C9.11724 7.45056 7.77477 7.98579 7.77477 10.7511C7.77477 12.0892 8.22226 13.4273 8.75925 14.587C9.65423 16.7279 10.8177 18.6904 12.2497 20.4745C12.6076 20.9205 13.9501 22.5262 14.7556 22.9722C16.0981 20.2961 18.067 18.0659 20.8414 16.7279L21.9154 16.1034L21.7364 15.6574ZM24.1528 15.033L24.3318 16.5495C24.3318 17.1739 24.1528 17.6199 23.6159 17.9767L21.8259 18.958C19.678 19.9392 18.067 21.7233 16.814 24.1319C16.2771 25.1131 15.7401 25.5592 14.8451 25.5592C13.5026 25.5592 11.9812 24.3995 10.1017 21.991C8.49076 20.0285 7.14829 17.7983 6.25331 15.479C5.44783 13.6057 5.08984 12 5.08984 10.5727C5.08984 6.64772 7.23779 4.77441 11.5337 4.77441C12.4287 4.77441 13.4131 4.86362 14.6661 5.22044C17.6195 5.75567 19.678 6.82613 20.8414 8.25341C21.7364 9.23466 22.8104 11.4648 24.1528 15.033Z" fill="white"/>
<path fill-rule="evenodd" clip-rule="evenodd" d="M21.8256 31.3576C21.8256 31.8036 21.9151 32.2496 22.1836 32.6064C22.8996 33.5877 25.0475 33.7661 26.211 33.7661L29.0749 33.4985C31.0439 33.2309 32.8338 32.1604 34.4448 31.0007C34.8923 30.6439 36.4137 29.4842 36.7717 28.6814C34.1763 27.2541 32.1178 25.2024 31.0439 22.4371L30.7754 21.7234H30.5069C29.0749 22.1694 25.5845 23.2399 24.6 24.132C23.3471 25.1132 22.6311 27.5217 22.1836 29.0382C22.0046 29.7519 21.9151 30.5547 21.8256 31.3576ZM32.6548 19.7609L33.3708 21.6342C34.1763 23.7751 35.7872 25.3808 38.0247 26.6297C38.9197 27.1649 39.3671 27.7001 39.3671 28.503C39.3671 29.9303 38.2037 31.4468 35.9662 33.1417C33.6393 34.8365 31.5809 35.8178 29.4329 36.0854L26.39 36.353C21.7361 36.353 19.4092 34.6581 19.4092 31.2683C19.4987 30.1979 19.5882 29.2166 19.7672 28.4138C20.5726 25.3808 21.6466 23.3291 22.9891 22.2586C23.9736 21.3666 26.39 20.3853 29.9699 19.3149L31.3124 19.1365C31.9388 19.0473 32.3863 19.3149 32.6548 19.7609Z" fill="white"/>
<path fill-rule="evenodd" clip-rule="evenodd" d="M2.67453 36.9772C2.76403 37.1557 2.94303 37.2449 3.03252 37.3341C4.017 38.1369 5.35946 39.2966 6.43344 39.8318H6.52293H6.61243C7.32841 40.2778 8.04439 40.4562 8.93937 40.4562C10.3713 40.4562 12.4298 39.5642 13.7722 39.029C14.8462 38.5829 16.6362 37.6909 16.6362 36.3528C16.5467 34.4795 14.2197 32.071 13.0563 30.9113C12.0718 30.0193 10.6398 29.3056 9.38686 28.7704C8.04439 28.2352 6.61243 27.7891 5.18047 27.7891C5.00147 27.7891 4.73298 27.7891 4.46449 27.8784V27.9676C4.82248 30.4653 4.82248 33.0522 3.56951 35.3716L2.67453 36.9772ZM1.24257 34.2119C2.04805 32.6062 2.22705 30.6437 1.86905 28.4136C1.51106 26.4511 2.58504 25.3806 5.09097 25.3806C6.61243 25.3806 8.31289 25.7374 10.2818 26.5403C12.0718 27.2539 13.5932 28.146 14.7567 29.2164C17.6206 31.9818 19.1421 34.3903 19.1421 36.442C19.1421 38.5829 17.7101 40.2778 14.6672 41.5267C12.1613 42.5972 10.2818 43.1324 8.84987 43.1324C7.6864 43.1324 6.52293 42.8648 5.35946 42.1511C4.28549 41.6159 2.94303 40.6346 1.33207 39.2074C0.52659 38.4045 0.0791016 37.7801 0.0791016 37.0665C0.0791016 36.7096 0.1686 36.3528 0.437093 35.8176L1.24257 34.2119Z" fill="white"/>
<path d="M195.451 37.5125H196.436V39.8318H199.031V37.5125H200.016V43.0432H199.031V40.5455H196.436V43.0432H195.451V37.5125ZM189.365 37.5125H190.35V41.7943L192.945 37.5125H193.93V43.0432H192.945V38.8506L190.35 43.0432H189.365V37.5125ZM185.696 40.5455V39.8318C186.054 39.8318 186.322 39.8318 186.501 39.7426C186.68 39.7426 186.77 39.6534 186.949 39.475C187.038 39.2966 187.128 39.1182 187.128 38.9398C187.128 38.6722 187.038 38.4937 186.859 38.3153C186.68 38.1369 186.501 38.0477 186.233 38.0477C185.696 38.0477 185.338 38.3153 185.069 38.9398L184.174 38.7614C184.443 37.6909 185.159 37.2449 186.233 37.2449C186.859 37.2449 187.307 37.4233 187.665 37.6909C188.023 38.0477 188.202 38.4045 188.202 38.8506C188.202 39.2966 188.023 39.6534 187.575 39.921C187.844 40.0994 188.023 40.2778 188.202 40.4563C188.381 40.7239 188.381 40.9915 188.381 41.2591C188.381 41.7943 188.202 42.1511 187.844 42.508C187.486 42.7756 186.949 42.954 186.322 42.954C185.069 42.954 184.353 42.4188 184.085 41.2591L184.98 41.0807C185.069 41.4375 185.248 41.7051 185.427 41.8835C185.696 42.0619 185.964 42.1511 186.233 42.1511C186.591 42.1511 186.859 42.0619 187.038 41.8835C187.217 41.7051 187.396 41.4375 187.396 41.1699C187.396 40.9915 187.307 40.7239 187.217 40.6347C187.128 40.4563 186.949 40.3671 186.77 40.3671C186.591 40.3671 186.322 40.2778 185.964 40.2778C185.875 40.5455 185.785 40.5455 185.696 40.5455ZM182.206 40.2778C181.848 40.4563 181.311 40.5455 180.684 40.6347C180.326 40.7239 180.058 40.7239 179.879 40.8131C179.7 40.9023 179.61 40.9915 179.521 41.0807C179.431 41.2591 179.431 41.3483 179.431 41.5267C179.431 41.7943 179.521 41.9727 179.7 42.1511C179.879 42.3296 180.147 42.4188 180.505 42.4188C180.863 42.4188 181.221 42.3296 181.49 42.1511C181.758 41.9727 182.027 41.7943 182.116 41.5267C182.206 41.3483 182.295 40.9915 182.295 40.5455L182.206 40.2778ZM182.295 42.4188C181.937 42.6864 181.579 42.954 181.311 43.0432C180.953 43.1324 180.595 43.2216 180.237 43.2216C179.61 43.2216 179.163 43.0432 178.805 42.7756C178.447 42.508 178.268 42.0619 178.268 41.6159C178.268 41.3483 178.357 41.0807 178.447 40.9023C178.536 40.6347 178.715 40.4563 178.894 40.3671C179.073 40.1886 179.342 40.0994 179.61 40.0994C179.789 40.0102 180.058 40.0102 180.416 39.921C181.221 39.8318 181.758 39.7426 182.116 39.5642C182.116 39.475 182.116 39.3858 182.116 39.2966C182.116 38.9398 182.027 38.6722 181.848 38.4937C181.579 38.3153 181.221 38.1369 180.774 38.1369C180.326 38.1369 179.968 38.2261 179.789 38.4045C179.61 38.583 179.431 38.8506 179.342 39.2074L178.447 39.1182C178.536 38.7614 178.626 38.4045 178.894 38.1369C179.073 37.8693 179.342 37.6909 179.7 37.6017C180.058 37.5125 180.505 37.4233 180.953 37.4233C181.4 37.4233 181.848 37.5125 182.116 37.6017C182.385 37.6909 182.653 37.8693 182.743 38.0477C182.922 38.2261 183.011 38.4045 183.011 38.6722C183.011 38.8506 183.1 39.1182 183.1 39.5642V40.8131C183.1 41.7051 183.101 42.2403 183.19 42.508C183.19 42.7756 183.28 42.954 183.459 43.2216H182.474C182.385 42.8648 182.295 42.6864 182.295 42.4188ZM174.956 37.5125H178.178V38.3153H175.941V43.1324H174.956V37.5125ZM172.54 40.2778C172.182 40.4563 171.645 40.5455 171.018 40.6347C170.66 40.7239 170.392 40.7239 170.213 40.8131C170.034 40.9023 169.944 40.9915 169.855 41.0807C169.765 41.2591 169.765 41.3483 169.765 41.5267C169.765 41.7943 169.855 41.9727 170.034 42.1511C170.213 42.3296 170.481 42.4188 170.839 42.4188C171.197 42.4188 171.555 42.3296 171.824 42.1511C172.092 41.9727 172.361 41.7943 172.45 41.5267C172.54 41.3483 172.629 40.9915 172.629 40.5455L172.54 40.2778ZM172.54 42.4188C172.182 42.6864 171.824 42.954 171.555 43.0432C171.197 43.1324 170.839 43.2216 170.481 43.2216C169.855 43.2216 169.407 43.0432 169.049 42.7756C168.691 42.508 168.512 42.0619 168.512 41.6159C168.512 41.3483 168.602 41.0807 168.691 40.9023C168.781 40.6347 168.96 40.4563 169.139 40.3671C169.318 40.1886 169.586 40.0994 169.855 40.0994C170.034 40.0102 170.302 40.0102 170.66 39.921C171.466 39.8318 172.003 39.7426 172.361 39.5642C172.361 39.475 172.361 39.3858 172.361 39.2966C172.361 38.9398 172.271 38.6722 172.092 38.4937C171.824 38.3153 171.466 38.1369 171.018 38.1369C170.571 38.1369 170.213 38.2261 170.034 38.4045C169.855 38.583 169.676 38.8506 169.586 39.2074L168.691 39.1182C168.781 38.7614 168.87 38.4045 169.139 38.1369C169.318 37.8693 169.586 37.6909 169.944 37.6017C170.302 37.5125 170.75 37.4233 171.197 37.4233C171.645 37.4233 172.092 37.5125 172.361 37.6017C172.629 37.6909 172.898 37.8693 172.987 38.0477C173.166 38.2261 173.256 38.4045 173.256 38.6722C173.256 38.8506 173.345 39.1182 173.345 39.5642V40.8131C173.345 41.7051 173.345 42.2403 173.435 42.508C173.435 42.7756 173.524 42.954 173.703 43.2216H172.719C172.629 42.8648 172.629 42.6864 172.54 42.4188ZM161.532 37.5125H162.964L164.396 41.9727L166.006 37.5125H167.349V43.0432H166.364V38.583L164.753 43.0432H163.948L162.427 38.3153V43.0432H161.532V37.5125ZM157.594 40.8131V39.8318H160.547V40.8131H157.594ZM152.492 37.5125H157.057V38.3153H155.267V43.1324H154.282V38.3153H152.492V37.5125ZM148.107 39.7426H151.239C151.239 39.2966 151.06 38.9398 150.881 38.6722C150.613 38.3153 150.165 38.1369 149.718 38.1369C149.27 38.1369 148.912 38.3153 148.644 38.583C148.286 38.8506 148.107 39.2966 148.107 39.7426ZM151.239 41.2591L152.224 41.3483C152.045 41.8835 151.776 42.3296 151.329 42.6864C150.881 43.0432 150.344 43.1324 149.718 43.1324C148.912 43.1324 148.286 42.8648 147.749 42.4188C147.301 41.8835 147.033 41.2591 147.033 40.2778C147.033 39.3858 147.301 38.583 147.749 38.1369C148.196 37.6017 148.823 37.3341 149.628 37.3341C150.344 37.3341 150.971 37.6017 151.418 38.0477C151.866 38.583 152.134 39.2966 152.134 40.1886C152.134 40.2778 152.134 40.367 152.134 40.4563H148.017C148.017 41.0807 148.196 41.5267 148.554 41.8835C148.823 42.2403 149.27 42.3296 149.718 42.3296C150.076 42.3296 150.344 42.2403 150.613 42.0619C150.881 41.9727 151.06 41.7051 151.239 41.2591ZM141.484 37.5125H142.469V39.8318H145.064V37.5125H146.048V43.0432H145.064V40.5455H142.469V43.0432H141.484V37.5125ZM136.293 40.3671C136.293 41.0807 136.472 41.6159 136.741 41.9727C137.009 42.3296 137.367 42.508 137.815 42.508C138.262 42.508 138.62 42.3296 138.889 41.9727C139.157 41.6159 139.336 41.0807 139.336 40.3671C139.336 39.6534 139.157 39.1182 138.889 38.7614C138.62 38.4045 138.262 38.2261 137.815 38.2261C137.457 38.2261 137.099 38.4045 136.741 38.7614C136.472 39.1182 136.293 39.6534 136.293 40.3671ZM135.488 45.1841V37.5125H136.383V38.2261C136.562 37.9585 136.83 37.6909 137.099 37.6017C137.367 37.4233 137.636 37.4233 137.994 37.4233C138.441 37.4233 138.889 37.5125 139.247 37.7801C139.605 38.0477 139.873 38.4045 140.052 38.8506C140.231 39.2966 140.321 39.7426 140.321 40.2778C140.321 40.8131 140.231 41.3483 140.052 41.7943C139.873 42.2403 139.515 42.5972 139.157 42.8648C138.799 43.1324 138.352 43.2216 137.904 43.2216C137.546 43.2216 137.278 43.1324 137.099 43.0432C136.83 42.954 136.651 42.7756 136.472 42.508V45.1841H135.488ZM130.207 39.7426H133.34C133.34 39.2966 133.161 38.9398 132.982 38.6722C132.713 38.3153 132.266 38.1369 131.818 38.1369C131.371 38.1369 131.013 38.3153 130.744 38.583C130.386 38.8506 130.207 39.2966 130.207 39.7426ZM133.25 41.2591L134.235 41.3483C134.056 41.8835 133.787 42.3296 133.34 42.6864C132.892 43.0432 132.355 43.1324 131.729 43.1324C130.923 43.1324 130.297 42.8648 129.76 42.4188C129.312 41.8835 129.044 41.2591 129.044 40.2778C129.044 39.3858 129.312 38.583 129.76 38.1369C130.207 37.6017 130.834 37.3341 131.639 37.3341C132.355 37.3341 132.982 37.6017 133.429 38.0477C133.877 38.583 134.145 39.2966 134.145 40.1886C134.145 40.2778 134.145 40.367 134.145 40.4563H130.028C130.028 41.0807 130.207 41.5267 130.565 41.8835C130.834 42.2403 131.281 42.3296 131.729 42.3296C132.087 42.3296 132.355 42.2403 132.624 42.0619C132.982 41.9727 133.161 41.7051 133.25 41.2591ZM124.211 37.5125H128.775V38.3153H126.985V43.1324H126.001V38.3153H124.211V37.5125ZM118.752 37.5125H119.736V39.8318H122.332V37.5125H123.316V43.0432H122.332V40.5455H119.736V43.0432H118.752V37.5125ZM112.666 37.5125H113.65V41.7943L116.246 37.5125H117.23V43.0432H116.246V38.8506L113.65 43.0432H112.666V37.5125ZM106.938 35.4608H107.564C107.475 35.9068 107.385 36.2636 107.117 36.442C106.849 36.7097 106.491 36.7989 106.043 36.7989C105.596 36.7989 105.238 36.7097 104.969 36.442C104.701 36.1744 104.522 35.9068 104.522 35.4608H105.148C105.238 35.7284 105.327 35.9068 105.417 35.996C105.596 36.0852 105.775 36.1744 106.043 36.1744C106.312 36.1744 106.58 36.0852 106.67 35.996C106.849 35.9068 106.938 35.7284 106.938 35.4608ZM103.716 37.5125H104.701V41.7943L107.296 37.5125H108.28V43.0432H107.296V38.8506L104.701 43.0432H103.716V37.5125ZM96.9143 42.3296H97.8987C98.5252 42.3296 98.8832 42.2404 99.1517 42.1511C99.4202 41.9727 99.5097 41.7943 99.5097 41.4375C99.5097 41.1699 99.4202 40.9915 99.2412 40.8131C99.0622 40.6347 98.6147 40.5455 97.9882 40.5455H96.8248V42.3296H96.9143ZM96.0193 37.5125H97.0038V39.6534H98.1672C98.9727 39.6534 99.5097 39.8318 99.9572 40.0994C100.405 40.367 100.584 40.8131 100.584 41.3483C100.584 41.7943 100.405 42.2403 100.047 42.508C99.6887 42.8648 99.1517 43.0432 98.3462 43.0432H96.0193V37.5125ZM101.3 37.5125H102.284V43.0432H101.3V37.5125ZM90.023 37.5125H91.0074V39.8318H93.6029V37.5125H94.5873V43.0432H93.6029V40.5455H91.0074V43.0432H90.023V37.5125ZM84.1161 37.5125H85.1006V39.8318H87.696V37.5125H88.6805V43.0432H87.696V40.5455H85.1006V43.0432H84.1161V37.5125ZM78.8357 39.7426H81.9682C81.9682 39.2966 81.7892 38.9398 81.6102 38.6722C81.3417 38.3153 80.8942 38.1369 80.4467 38.1369C79.9992 38.1369 79.6412 38.3153 79.3727 38.583C79.0147 38.8506 78.8357 39.2966 78.8357 39.7426ZM81.8787 41.2591L82.8631 41.3483C82.6841 41.8835 82.4157 42.3296 81.9682 42.6864C81.5207 43.0432 80.9837 43.1324 80.3572 43.1324C79.5517 43.1324 78.9252 42.8648 78.3883 42.4188C77.9408 41.8835 77.6723 41.2591 77.6723 40.2778C77.6723 39.3858 77.9408 38.583 78.3883 38.1369C78.8357 37.6017 79.4622 37.3341 80.2677 37.3341C80.9837 37.3341 81.6102 37.6017 82.0577 38.0477C82.5051 38.583 82.7736 39.2966 82.7736 40.1886C82.7736 40.2778 82.7736 40.367 82.7736 40.4563H78.6567C78.6567 41.0807 78.8357 41.5267 79.1937 41.8835C79.4622 42.2403 79.9097 42.3296 80.3572 42.3296C80.7152 42.3296 80.9837 42.2403 81.2522 42.0619C81.6102 41.9727 81.7892 41.7051 81.8787 41.2591ZM70.6915 37.5125H72.1234L73.5554 41.9727L75.1663 37.5125H76.5088V43.0432H75.5243V38.583L73.9134 43.0432H73.1079L71.5864 38.3153V43.0432H70.6915V37.5125ZM65.5901 40.3671C65.5901 41.0807 65.7691 41.6159 66.0376 41.9727C66.3061 42.3296 66.6641 42.508 67.1116 42.508C67.559 42.508 67.917 42.3296 68.1855 41.9727C68.454 41.6159 68.633 41.0807 68.633 40.3671C68.633 39.6534 68.454 39.1182 68.1855 38.7614C67.917 38.4045 67.559 38.2261 67.1116 38.2261C66.7536 38.2261 66.3956 38.4045 66.0376 38.7614C65.7691 39.1182 65.5901 39.6534 65.5901 40.3671ZM64.6951 45.1841V37.5125H65.5901V38.2261C65.7691 37.9585 66.0376 37.6909 66.3061 37.6017C66.5746 37.4233 66.8431 37.4233 67.201 37.4233C67.6485 37.4233 68.096 37.5125 68.454 37.7801C68.812 38.0477 69.0805 38.4045 69.2595 38.8506C69.4385 39.2966 69.528 39.7426 69.528 40.2778C69.528 40.8131 69.4385 41.3483 69.2595 41.7943C69.0805 42.2403 68.7225 42.5972 68.3645 42.8648C68.0065 43.1324 67.559 43.2216 67.1116 43.2216C66.7536 43.2216 66.4851 43.1324 66.3061 43.0432C66.0376 42.954 65.8586 42.7756 65.6796 42.508V45.1841H64.6951ZM58.6988 37.5125H59.6832V41.7943L62.2787 37.5125H63.2632V43.0432H62.2787V38.8506L59.6832 43.0432H58.6988V37.5125ZM53.4184 37.1557C52.7919 37.1557 52.2549 37.3341 51.897 37.6909C51.539 38.0477 51.2705 38.4937 51.2705 39.1182C51.2705 39.7426 51.4495 40.1886 51.8074 40.5455C52.1654 40.9023 52.7024 41.0807 53.3289 41.0807V37.1557H53.4184ZM54.4029 37.1557V41.1699C55.0294 41.1699 55.5664 40.9023 55.9243 40.6347C56.2823 40.2778 56.4613 39.8318 56.4613 39.2074C56.4613 38.583 56.2823 38.1369 55.9243 37.7801C55.5664 37.4233 55.0294 37.2449 54.4029 37.1557ZM53.4184 36.3528V35.3716H54.4029V36.3528C55.3874 36.442 56.1928 36.7097 56.7298 37.2449C57.2668 37.7801 57.6248 38.4937 57.6248 39.2074C57.6248 40.0102 57.3563 40.6347 56.8193 41.1699C56.2823 41.7051 55.4769 42.0619 54.4924 42.0619V43.0432H53.5079V42.0619C52.6129 42.0619 51.8075 41.7051 51.2705 41.2591C50.644 40.7239 50.3755 40.0102 50.3755 39.2074C50.3755 38.3153 50.644 37.6909 51.2705 37.1557C51.718 36.6204 52.5234 36.3528 53.4184 36.3528Z" fill="white"/>
<path d="M118.125 21.1881C117.409 21.1881 116.783 21.0097 116.335 20.7421C115.888 20.4744 115.53 20.1176 115.172 19.6716C114.903 19.2256 114.724 18.8688 114.545 18.4227C114.456 17.9767 114.366 17.7091 114.366 17.5307C114.366 16.9955 114.456 16.4602 114.724 16.0142C114.993 15.5682 115.261 15.2114 115.709 14.8545C116.067 14.5869 116.514 14.3193 116.872 14.1409C117.32 13.9625 117.678 13.8733 118.036 13.8733C118.394 13.8733 118.841 13.9625 119.289 14.1409C119.736 14.3193 120.094 14.5869 120.452 14.8545C120.81 15.1222 121.168 15.5682 121.347 15.925C121.616 16.371 121.705 16.8171 121.705 17.2631C121.705 17.9767 121.616 18.6011 121.347 19.1364C121.079 19.6716 120.721 20.0284 120.363 20.296C120.005 20.5637 119.557 20.8313 119.11 20.9205C118.841 21.1881 118.483 21.1881 118.125 21.1881Z" fill="white"/>
<path fill-rule="evenodd" clip-rule="evenodd" d="M195.093 17.8876C195.004 16.2819 194.109 14.9438 192.319 14.9438C190.529 14.9438 189.365 16.2819 189.007 17.8876H195.093ZM188.918 21.3665C189.365 23.5075 190.976 24.9347 193.303 24.9347C194.646 24.9347 196.078 24.5779 197.331 24.1319C197.42 24.1319 197.51 24.0427 197.51 24.0427C197.599 24.0427 197.689 24.0427 197.778 24.0427C198.226 24.0427 198.494 24.3103 198.673 24.7563L199.121 26.4512C199.121 26.6296 199.21 26.808 199.21 26.8973C199.21 27.4325 198.852 27.7001 198.405 27.8785C196.704 28.6814 194.377 29.0382 192.498 29.0382C186.949 29.0382 183.638 25.47 183.638 19.9393C183.638 14.6762 187.128 10.9296 192.498 10.9296C194.467 10.9296 196.346 11.6432 197.778 13.0705C199.479 14.8546 199.926 17.0847 199.926 19.404V19.9393C199.926 20.2961 199.837 20.7421 199.568 21.0097C199.3 21.2773 198.763 21.3665 198.405 21.3665H188.918ZM183.638 12.3568L183.28 14.7654C183.19 15.2114 182.922 15.5682 182.385 15.5682C182.295 15.5682 182.295 15.5682 182.206 15.5682H182.116H182.027C181.758 15.479 181.49 15.479 181.221 15.479C180.147 15.479 179.073 16.1035 178.357 16.8171V27.4325C178.357 28.2353 177.91 28.6813 177.104 28.6813H174.598C173.793 28.6813 173.345 28.2353 173.345 27.4325V12.6245C173.345 11.8216 173.793 11.3756 174.598 11.3756H176.746C177.462 11.3756 177.999 11.6432 177.999 12.4461V12.5353C178.984 11.554 180.147 11.0188 181.758 11.0188C182.116 11.0188 182.474 11.108 182.832 11.1972C183.28 11.2864 183.459 11.554 183.459 12C183.638 12.0892 183.638 12.1784 183.638 12.3568ZM166.007 20.0285C166.007 17.7091 165.38 15.033 162.516 15.033C159.652 15.033 158.936 17.5307 158.936 19.9393C158.936 21.3665 159.205 23.2399 160.279 24.3103C160.905 24.8455 161.621 25.1132 162.427 25.1132C165.201 25.0239 166.007 22.3478 166.007 20.0285ZM171.018 20.0285C171.018 25.2916 167.707 29.0382 162.337 29.0382C156.699 29.0382 153.835 25.2916 153.835 19.9393C153.835 14.6762 157.146 10.9296 162.516 10.9296C168.155 10.9296 171.018 14.587 171.018 20.0285ZM142.737 15.033H141.574C141.305 15.033 140.947 15.033 140.679 14.7654C140.41 14.4978 140.41 14.1409 140.41 13.7841V12.5353C140.41 11.9108 140.768 11.4648 141.395 11.4648H142.737V8.16422C142.737 7.36137 143.185 7.09376 143.901 6.91535L146.407 6.64773C146.496 6.64773 146.496 6.64773 146.586 6.64773C147.302 6.64773 147.66 7.09376 147.66 7.8074V11.4648H151.061C151.687 11.4648 152.134 11.7324 152.134 12.4461V14.0517C152.134 14.6762 151.687 15.1222 151.061 15.1222H147.66V22.437C147.66 23.0614 147.66 23.9535 148.018 24.4887C148.286 24.9347 148.823 25.0239 149.271 25.0239C149.987 25.0239 150.613 24.8455 151.329 24.6671C151.508 24.6671 151.597 24.5779 151.776 24.5779C152.224 24.5779 152.492 24.8455 152.582 25.2916L152.94 26.9865C152.94 27.0757 153.029 27.1649 153.029 27.2541C153.029 27.7893 152.761 28.0569 152.313 28.2353C151.06 28.7706 149.718 29.0382 148.376 29.0382C146.854 29.0382 145.064 28.6813 143.99 27.5217C143.722 27.2541 143.543 26.9865 143.364 26.6296C143.095 26.0052 142.916 25.3808 142.827 24.7563C142.737 23.9535 142.737 23.0614 142.737 22.2586V15.033ZM123.227 26.362L123.943 24.2211C124.122 23.7751 124.39 23.4183 124.927 23.4183C125.106 23.4183 125.375 23.5075 125.554 23.5075C127.075 24.0427 128.776 24.4887 130.476 24.4887C132.087 24.4887 133.966 23.7751 133.966 21.9018C133.966 20.4745 132.892 19.7609 131.729 19.2256L127.344 16.9955C124.838 15.7466 123.137 13.6949 123.137 10.8404C123.137 6.46932 127.433 4.06079 131.371 4.06079C133.608 4.06079 135.577 4.41761 137.636 5.30966C138.083 5.48807 138.531 5.84489 138.531 6.38012C138.531 6.55853 138.441 6.73694 138.441 7.00455L137.636 9.05627C137.457 9.50229 137.188 9.85911 136.651 9.85911C136.383 9.85911 136.204 9.76991 136.025 9.6807C134.772 9.14547 133.071 8.69945 131.729 8.69945C130.387 8.69945 128.686 9.23468 128.686 10.8404C128.686 12.0892 129.939 12.8029 130.834 13.2489L134.593 15.033C137.367 16.3711 139.336 18.3336 139.336 21.545C139.336 26.4512 135.309 29.2166 130.655 29.2166C128.507 29.2166 126.091 28.8598 124.032 28.1461C123.585 27.9677 123.227 27.7001 123.227 27.1649C123.137 26.7188 123.137 26.5404 123.227 26.362ZM99.0624 16.5495V16.6387C99.0624 16.8171 99.0624 17.0847 99.0624 17.2631C99.0624 17.8876 99.0624 18.4228 99.0624 19.0472C99.0624 19.9393 99.0624 20.8313 99.0624 21.7234V27.3433C99.0624 28.1461 98.7044 28.5921 97.8094 28.5921H95.5719C94.7665 28.5921 94.319 28.1461 94.319 27.3433V18.066C94.319 17.3523 94.2295 16.3711 93.782 15.7466C93.424 15.3006 92.7975 15.2114 92.2605 15.2114C91.0076 15.2114 89.8441 15.925 88.8596 16.7279V27.3433C88.8596 28.1461 88.4121 28.5921 87.6067 28.5921H85.1902C84.3847 28.5921 83.9372 28.1461 83.9372 27.3433V12.5353C83.9372 11.8216 84.3847 11.3756 85.1902 11.3756H87.4277C88.1436 11.3756 88.5911 11.6432 88.6806 12.3568V12.4461C90.0231 11.4648 91.634 10.9296 93.3345 10.9296C95.035 10.9296 96.7354 11.554 97.7199 12.8921C99.3308 11.554 101.389 10.9296 103.448 10.9296C104.611 10.9296 105.685 11.1972 106.67 11.7324C107.475 12.1784 108.102 12.8921 108.549 13.6057C109.355 15.1222 109.444 16.9955 109.444 18.6904V27.2541C109.444 28.0569 109.086 28.5029 108.191 28.5029H105.775C104.969 28.5029 104.522 28.0569 104.522 27.2541V18.066C104.522 17.3523 104.432 16.3711 103.985 15.8358C103.627 15.3898 103 15.3006 102.374 15.3006C101.389 15.3006 100.047 15.8358 99.0624 16.5495ZM77.0459 27.4325C75.5245 28.4137 73.824 29.0382 72.0341 29.0382C67.9172 29.0382 66.3062 26.362 66.3062 22.6154V12.5353C66.3062 11.7324 66.8432 11.3756 67.5592 11.3756H69.9756C70.7811 11.3756 71.2286 11.7324 71.2286 12.5353V21.8126C71.2286 22.5262 71.3181 23.5075 71.7656 24.0427C72.1236 24.4887 72.75 24.5779 73.287 24.5779C74.4505 24.5779 75.8825 23.9535 76.8669 23.1506V12.5353C76.8669 11.7324 77.3144 11.3756 78.1199 11.3756H80.5363C81.3418 11.3756 81.7893 11.7324 81.7893 12.5353V27.2541C81.7893 28.1461 81.4313 28.5921 80.5363 28.5921H78.3884C77.7619 28.5921 77.2249 28.2353 77.1354 27.5217L77.0459 27.4325ZM55.3875 24.2211H63.6213C64.3373 24.2211 64.8743 24.6671 64.8743 25.3808V27.4325C64.8743 28.2353 64.4268 28.6813 63.6213 28.6813H51.5391C50.6441 28.6813 50.2861 28.2353 50.2861 27.3433V5.66648C50.2861 4.95284 50.7336 4.41761 51.5391 4.41761H54.224C55.119 4.41761 55.477 4.86364 55.477 5.66648V24.2211H55.3875Z" fill="white"/>
<path fill-rule="evenodd" clip-rule="evenodd" d="M21.7364 15.6574C21.1099 14.1409 19.9465 11.108 19.0515 9.9483C18.067 8.69943 15.8296 8.075 14.3976 7.80738H14.3081H14.2186C13.4131 7.62897 12.5181 7.45056 11.7127 7.45056C9.11724 7.45056 7.77477 7.98579 7.77477 10.7511C7.77477 12.0892 8.22226 13.4273 8.75925 14.587C9.65423 16.7279 10.8177 18.6904 12.2497 20.4745C12.6076 20.9205 13.9501 22.5262 14.7556 22.9722C16.0981 20.2961 18.067 18.0659 20.8414 16.7279L21.9154 16.1034L21.7364 15.6574ZM24.1528 15.033L24.3318 16.5495C24.3318 17.1739 24.1528 17.6199 23.6159 17.9767L21.8259 18.958C19.678 19.9392 18.067 21.7233 16.814 24.1319C16.2771 25.1131 15.7401 25.5592 14.8451 25.5592C13.5026 25.5592 11.9812 24.3995 10.1017 21.991C8.49076 20.0285 7.14829 17.7983 6.25331 15.479C5.44783 13.6057 5.08984 12 5.08984 10.5727C5.08984 6.64772 7.23779 4.77441 11.5337 4.77441C12.4287 4.77441 13.4131 4.86362 14.6661 5.22044C17.6195 5.75567 19.678 6.82613 20.8414 8.25341C21.7364 9.23466 22.8104 11.4648 24.1528 15.033Z" fill="white"/>
<path fill-rule="evenodd" clip-rule="evenodd" d="M21.8256 31.3576C21.8256 31.8036 21.9151 32.2496 22.1836 32.6064C22.8996 33.5877 25.0475 33.7661 26.211 33.7661L29.0749 33.4985C31.0439 33.2309 32.8338 32.1604 34.4448 31.0007C34.8923 30.6439 36.4137 29.4842 36.7717 28.6814C34.1763 27.2541 32.1178 25.2024 31.0439 22.4371L30.7754 21.7234H30.5069C29.0749 22.1694 25.5845 23.2399 24.6 24.132C23.3471 25.1132 22.6311 27.5217 22.1836 29.0382C22.0046 29.7519 21.9151 30.5547 21.8256 31.3576ZM32.6548 19.7609L33.3708 21.6342C34.1763 23.7751 35.7872 25.3808 38.0247 26.6297C38.9197 27.1649 39.3671 27.7001 39.3671 28.503C39.3671 29.9303 38.2037 31.4468 35.9662 33.1417C33.6393 34.8365 31.5809 35.8178 29.4329 36.0854L26.39 36.353C21.7361 36.353 19.4092 34.6581 19.4092 31.2683C19.4987 30.1979 19.5882 29.2166 19.7672 28.4138C20.5726 25.3808 21.6466 23.3291 22.9891 22.2586C23.9736 21.3666 26.39 20.3853 29.9699 19.3149L31.3124 19.1365C31.9388 19.0473 32.3863 19.3149 32.6548 19.7609Z" fill="white"/>
<path fill-rule="evenodd" clip-rule="evenodd" d="M2.67453 36.9772C2.76403 37.1557 2.94303 37.2449 3.03252 37.3341C4.017 38.1369 5.35946 39.2966 6.43344 39.8318H6.52293H6.61243C7.32841 40.2778 8.04439 40.4562 8.93937 40.4562C10.3713 40.4562 12.4298 39.5642 13.7722 39.029C14.8462 38.5829 16.6362 37.6909 16.6362 36.3528C16.5467 34.4795 14.2197 32.071 13.0563 30.9113C12.0718 30.0193 10.6398 29.3056 9.38686 28.7704C8.04439 28.2352 6.61243 27.7891 5.18047 27.7891C5.00147 27.7891 4.73298 27.7891 4.46449 27.8784V27.9676C4.82248 30.4653 4.82248 33.0522 3.56951 35.3716L2.67453 36.9772ZM1.24257 34.2119C2.04805 32.6062 2.22705 30.6437 1.86905 28.4136C1.51106 26.4511 2.58504 25.3806 5.09097 25.3806C6.61243 25.3806 8.31289 25.7374 10.2818 26.5403C12.0718 27.2539 13.5932 28.146 14.7567 29.2164C17.6206 31.9818 19.1421 34.3903 19.1421 36.442C19.1421 38.5829 17.7101 40.2778 14.6672 41.5267C12.1613 42.5972 10.2818 43.1324 8.84987 43.1324C7.6864 43.1324 6.52293 42.8648 5.35946 42.1511C4.28549 41.6159 2.94303 40.6346 1.33207 39.2074C0.52659 38.4045 0.0791016 37.7801 0.0791016 37.0665C0.0791016 36.7096 0.1686 36.3528 0.437093 35.8176L1.24257 34.2119Z" fill="white"/>
<path d="M195.451 37.5125H196.436V39.8318H199.031V37.5125H200.016V43.0432H199.031V40.5455H196.436V43.0432H195.451V37.5125ZM189.365 37.5125H190.35V41.7943L192.945 37.5125H193.93V43.0432H192.945V38.8506L190.35 43.0432H189.365V37.5125ZM185.696 40.5455V39.8318C186.054 39.8318 186.322 39.8318 186.501 39.7426C186.68 39.7426 186.77 39.6534 186.949 39.475C187.038 39.2966 187.128 39.1182 187.128 38.9398C187.128 38.6722 187.038 38.4937 186.859 38.3153C186.68 38.1369 186.501 38.0477 186.233 38.0477C185.696 38.0477 185.338 38.3153 185.069 38.9398L184.174 38.7614C184.443 37.6909 185.159 37.2449 186.233 37.2449C186.859 37.2449 187.307 37.4233 187.665 37.6909C188.023 38.0477 188.202 38.4045 188.202 38.8506C188.202 39.2966 188.023 39.6534 187.575 39.921C187.844 40.0994 188.023 40.2778 188.202 40.4563C188.381 40.7239 188.381 40.9915 188.381 41.2591C188.381 41.7943 188.202 42.1511 187.844 42.508C187.486 42.7756 186.949 42.954 186.322 42.954C185.069 42.954 184.353 42.4188 184.085 41.2591L184.98 41.0807C185.069 41.4375 185.248 41.7051 185.427 41.8835C185.696 42.0619 185.964 42.1511 186.233 42.1511C186.591 42.1511 186.859 42.0619 187.038 41.8835C187.217 41.7051 187.396 41.4375 187.396 41.1699C187.396 40.9915 187.307 40.7239 187.217 40.6347C187.128 40.4563 186.949 40.3671 186.77 40.3671C186.591 40.3671 186.322 40.2778 185.964 40.2778C185.875 40.5455 185.785 40.5455 185.696 40.5455ZM182.206 40.2778C181.848 40.4563 181.311 40.5455 180.684 40.6347C180.326 40.7239 180.058 40.7239 179.879 40.8131C179.7 40.9023 179.61 40.9915 179.521 41.0807C179.431 41.2591 179.431 41.3483 179.431 41.5267C179.431 41.7943 179.521 41.9727 179.7 42.1511C179.879 42.3296 180.147 42.4188 180.505 42.4188C180.863 42.4188 181.221 42.3296 181.49 42.1511C181.758 41.9727 182.027 41.7943 182.116 41.5267C182.206 41.3483 182.295 40.9915 182.295 40.5455L182.206 40.2778ZM182.295 42.4188C181.937 42.6864 181.579 42.954 181.311 43.0432C180.953 43.1324 180.595 43.2216 180.237 43.2216C179.61 43.2216 179.163 43.0432 178.805 42.7756C178.447 42.508 178.268 42.0619 178.268 41.6159C178.268 41.3483 178.357 41.0807 178.447 40.9023C178.536 40.6347 178.715 40.4563 178.894 40.3671C179.073 40.1886 179.342 40.0994 179.61 40.0994C179.789 40.0102 180.058 40.0102 180.416 39.921C181.221 39.8318 181.758 39.7426 182.116 39.5642C182.116 39.475 182.116 39.3858 182.116 39.2966C182.116 38.9398 182.027 38.6722 181.848 38.4937C181.579 38.3153 181.221 38.1369 180.774 38.1369C180.326 38.1369 179.968 38.2261 179.789 38.4045C179.61 38.583 179.431 38.8506 179.342 39.2074L178.447 39.1182C178.536 38.7614 178.626 38.4045 178.894 38.1369C179.073 37.8693 179.342 37.6909 179.7 37.6017C180.058 37.5125 180.505 37.4233 180.953 37.4233C181.4 37.4233 181.848 37.5125 182.116 37.6017C182.385 37.6909 182.653 37.8693 182.743 38.0477C182.922 38.2261 183.011 38.4045 183.011 38.6722C183.011 38.8506 183.1 39.1182 183.1 39.5642V40.8131C183.1 41.7051 183.101 42.2403 183.19 42.508C183.19 42.7756 183.28 42.954 183.459 43.2216H182.474C182.385 42.8648 182.295 42.6864 182.295 42.4188ZM174.956 37.5125H178.178V38.3153H175.941V43.1324H174.956V37.5125ZM172.54 40.2778C172.182 40.4563 171.645 40.5455 171.018 40.6347C170.66 40.7239 170.392 40.7239 170.213 40.8131C170.034 40.9023 169.944 40.9915 169.855 41.0807C169.765 41.2591 169.765 41.3483 169.765 41.5267C169.765 41.7943 169.855 41.9727 170.034 42.1511C170.213 42.3296 170.481 42.4188 170.839 42.4188C171.197 42.4188 171.555 42.3296 171.824 42.1511C172.092 41.9727 172.361 41.7943 172.45 41.5267C172.54 41.3483 172.629 40.9915 172.629 40.5455L172.54 40.2778ZM172.54 42.4188C172.182 42.6864 171.824 42.954 171.555 43.0432C171.197 43.1324 170.839 43.2216 170.481 43.2216C169.855 43.2216 169.407 43.0432 169.049 42.7756C168.691 42.508 168.512 42.0619 168.512 41.6159C168.512 41.3483 168.602 41.0807 168.691 40.9023C168.781 40.6347 168.96 40.4563 169.139 40.3671C169.318 40.1886 169.586 40.0994 169.855 40.0994C170.034 40.0102 170.302 40.0102 170.66 39.921C171.466 39.8318 172.003 39.7426 172.361 39.5642C172.361 39.475 172.361 39.3858 172.361 39.2966C172.361 38.9398 172.271 38.6722 172.092 38.4937C171.824 38.3153 171.466 38.1369 171.018 38.1369C170.571 38.1369 170.213 38.2261 170.034 38.4045C169.855 38.583 169.676 38.8506 169.586 39.2074L168.691 39.1182C168.781 38.7614 168.87 38.4045 169.139 38.1369C169.318 37.8693 169.586 37.6909 169.944 37.6017C170.302 37.5125 170.75 37.4233 171.197 37.4233C171.645 37.4233 172.092 37.5125 172.361 37.6017C172.629 37.6909 172.898 37.8693 172.987 38.0477C173.166 38.2261 173.256 38.4045 173.256 38.6722C173.256 38.8506 173.345 39.1182 173.345 39.5642V40.8131C173.345 41.7051 173.345 42.2403 173.435 42.508C173.435 42.7756 173.524 42.954 173.703 43.2216H172.719C172.629 42.8648 172.629 42.6864 172.54 42.4188ZM161.532 37.5125H162.964L164.396 41.9727L166.006 37.5125H167.349V43.0432H166.364V38.583L164.753 43.0432H163.948L162.427 38.3153V43.0432H161.532V37.5125ZM157.594 40.8131V39.8318H160.547V40.8131H157.594ZM152.492 37.5125H157.057V38.3153H155.267V43.1324H154.282V38.3153H152.492V37.5125ZM148.107 39.7426H151.239C151.239 39.2966 151.06 38.9398 150.881 38.6722C150.613 38.3153 150.165 38.1369 149.718 38.1369C149.27 38.1369 148.912 38.3153 148.644 38.583C148.286 38.8506 148.107 39.2966 148.107 39.7426ZM151.239 41.2591L152.224 41.3483C152.045 41.8835 151.776 42.3296 151.329 42.6864C150.881 43.0432 150.344 43.1324 149.718 43.1324C148.912 43.1324 148.286 42.8648 147.749 42.4188C147.301 41.8835 147.033 41.2591 147.033 40.2778C147.033 39.3858 147.301 38.583 147.749 38.1369C148.196 37.6017 148.823 37.3341 149.628 37.3341C150.344 37.3341 150.971 37.6017 151.418 38.0477C151.866 38.583 152.134 39.2966 152.134 40.1886C152.134 40.2778 152.134 40.367 152.134 40.4563H148.017C148.017 41.0807 148.196 41.5267 148.554 41.8835C148.823 42.2403 149.27 42.3296 149.718 42.3296C150.076 42.3296 150.344 42.2403 150.613 42.0619C150.881 41.9727 151.06 41.7051 151.239 41.2591ZM141.484 37.5125H142.469V39.8318H145.064V37.5125H146.048V43.0432H145.064V40.5455H142.469V43.0432H141.484V37.5125ZM136.293 40.3671C136.293 41.0807 136.472 41.6159 136.741 41.9727C137.009 42.3296 137.367 42.508 137.815 42.508C138.262 42.508 138.62 42.3296 138.889 41.9727C139.157 41.6159 139.336 41.0807 139.336 40.3671C139.336 39.6534 139.157 39.1182 138.889 38.7614C138.62 38.4045 138.262 38.2261 137.815 38.2261C137.457 38.2261 137.099 38.4045 136.741 38.7614C136.472 39.1182 136.293 39.6534 136.293 40.3671ZM135.488 45.1841V37.5125H136.383V38.2261C136.562 37.9585 136.83 37.6909 137.099 37.6017C137.367 37.4233 137.636 37.4233 137.994 37.4233C138.441 37.4233 138.889 37.5125 139.247 37.7801C139.605 38.0477 139.873 38.4045 140.052 38.8506C140.231 39.2966 140.321 39.7426 140.321 40.2778C140.321 40.8131 140.231 41.3483 140.052 41.7943C139.873 42.2403 139.515 42.5972 139.157 42.8648C138.799 43.1324 138.352 43.2216 137.904 43.2216C137.546 43.2216 137.278 43.1324 137.099 43.0432C136.83 42.954 136.651 42.7756 136.472 42.508V45.1841H135.488ZM130.207 39.7426H133.34C133.34 39.2966 133.161 38.9398 132.982 38.6722C132.713 38.3153 132.266 38.1369 131.818 38.1369C131.371 38.1369 131.013 38.3153 130.744 38.583C130.386 38.8506 130.207 39.2966 130.207 39.7426ZM133.25 41.2591L134.235 41.3483C134.056 41.8835 133.787 42.3296 133.34 42.6864C132.892 43.0432 132.355 43.1324 131.729 43.1324C130.923 43.1324 130.297 42.8648 129.76 42.4188C129.312 41.8835 129.044 41.2591 129.044 40.2778C129.044 39.3858 129.312 38.583 129.76 38.1369C130.207 37.6017 130.834 37.3341 131.639 37.3341C132.355 37.3341 132.982 37.6017 133.429 38.0477C133.877 38.583 134.145 39.2966 134.145 40.1886C134.145 40.2778 134.145 40.367 134.145 40.4563H130.028C130.028 41.0807 130.207 41.5267 130.565 41.8835C130.834 42.2403 131.281 42.3296 131.729 42.3296C132.087 42.3296 132.355 42.2403 132.624 42.0619C132.982 41.9727 133.161 41.7051 133.25 41.2591ZM124.211 37.5125H128.775V38.3153H126.985V43.1324H126.001V38.3153H124.211V37.5125ZM118.752 37.5125H119.736V39.8318H122.332V37.5125H123.316V43.0432H122.332V40.5455H119.736V43.0432H118.752V37.5125ZM112.666 37.5125H113.65V41.7943L116.246 37.5125H117.23V43.0432H116.246V38.8506L113.65 43.0432H112.666V37.5125ZM106.938 35.4608H107.564C107.475 35.9068 107.385 36.2636 107.117 36.442C106.849 36.7097 106.491 36.7989 106.043 36.7989C105.596 36.7989 105.238 36.7097 104.969 36.442C104.701 36.1744 104.522 35.9068 104.522 35.4608H105.148C105.238 35.7284 105.327 35.9068 105.417 35.996C105.596 36.0852 105.775 36.1744 106.043 36.1744C106.312 36.1744 106.58 36.0852 106.67 35.996C106.849 35.9068 106.938 35.7284 106.938 35.4608ZM103.716 37.5125H104.701V41.7943L107.296 37.5125H108.28V43.0432H107.296V38.8506L104.701 43.0432H103.716V37.5125ZM96.9143 42.3296H97.8987C98.5252 42.3296 98.8832 42.2404 99.1517 42.1511C99.4202 41.9727 99.5097 41.7943 99.5097 41.4375C99.5097 41.1699 99.4202 40.9915 99.2412 40.8131C99.0622 40.6347 98.6147 40.5455 97.9882 40.5455H96.8248V42.3296H96.9143ZM96.0193 37.5125H97.0038V39.6534H98.1672C98.9727 39.6534 99.5097 39.8318 99.9572 40.0994C100.405 40.367 100.584 40.8131 100.584 41.3483C100.584 41.7943 100.405 42.2403 100.047 42.508C99.6887 42.8648 99.1517 43.0432 98.3462 43.0432H96.0193V37.5125ZM101.3 37.5125H102.284V43.0432H101.3V37.5125ZM90.023 37.5125H91.0074V39.8318H93.6029V37.5125H94.5873V43.0432H93.6029V40.5455H91.0074V43.0432H90.023V37.5125ZM84.1161 37.5125H85.1006V39.8318H87.696V37.5125H88.6805V43.0432H87.696V40.5455H85.1006V43.0432H84.1161V37.5125ZM78.8357 39.7426H81.9682C81.9682 39.2966 81.7892 38.9398 81.6102 38.6722C81.3417 38.3153 80.8942 38.1369 80.4467 38.1369C79.9992 38.1369 79.6412 38.3153 79.3727 38.583C79.0147 38.8506 78.8357 39.2966 78.8357 39.7426ZM81.8787 41.2591L82.8631 41.3483C82.6841 41.8835 82.4157 42.3296 81.9682 42.6864C81.5207 43.0432 80.9837 43.1324 80.3572 43.1324C79.5517 43.1324 78.9252 42.8648 78.3883 42.4188C77.9408 41.8835 77.6723 41.2591 77.6723 40.2778C77.6723 39.3858 77.9408 38.583 78.3883 38.1369C78.8357 37.6017 79.4622 37.3341 80.2677 37.3341C80.9837 37.3341 81.6102 37.6017 82.0577 38.0477C82.5051 38.583 82.7736 39.2966 82.7736 40.1886C82.7736 40.2778 82.7736 40.367 82.7736 40.4563H78.6567C78.6567 41.0807 78.8357 41.5267 79.1937 41.8835C79.4622 42.2403 79.9097 42.3296 80.3572 42.3296C80.7152 42.3296 80.9837 42.2403 81.2522 42.0619C81.6102 41.9727 81.7892 41.7051 81.8787 41.2591ZM70.6915 37.5125H72.1234L73.5554 41.9727L75.1663 37.5125H76.5088V43.0432H75.5243V38.583L73.9134 43.0432H73.1079L71.5864 38.3153V43.0432H70.6915V37.5125ZM65.5901 40.3671C65.5901 41.0807 65.7691 41.6159 66.0376 41.9727C66.3061 42.3296 66.6641 42.508 67.1116 42.508C67.559 42.508 67.917 42.3296 68.1855 41.9727C68.454 41.6159 68.633 41.0807 68.633 40.3671C68.633 39.6534 68.454 39.1182 68.1855 38.7614C67.917 38.4045 67.559 38.2261 67.1116 38.2261C66.7536 38.2261 66.3956 38.4045 66.0376 38.7614C65.7691 39.1182 65.5901 39.6534 65.5901 40.3671ZM64.6951 45.1841V37.5125H65.5901V38.2261C65.7691 37.9585 66.0376 37.6909 66.3061 37.6017C66.5746 37.4233 66.8431 37.4233 67.201 37.4233C67.6485 37.4233 68.096 37.5125 68.454 37.7801C68.812 38.0477 69.0805 38.4045 69.2595 38.8506C69.4385 39.2966 69.528 39.7426 69.528 40.2778C69.528 40.8131 69.4385 41.3483 69.2595 41.7943C69.0805 42.2403 68.7225 42.5972 68.3645 42.8648C68.0065 43.1324 67.559 43.2216 67.1116 43.2216C66.7536 43.2216 66.4851 43.1324 66.3061 43.0432C66.0376 42.954 65.8586 42.7756 65.6796 42.508V45.1841H64.6951ZM58.6988 37.5125H59.6832V41.7943L62.2787 37.5125H63.2632V43.0432H62.2787V38.8506L59.6832 43.0432H58.6988V37.5125ZM53.4184 37.1557C52.7919 37.1557 52.2549 37.3341 51.897 37.6909C51.539 38.0477 51.2705 38.4937 51.2705 39.1182C51.2705 39.7426 51.4495 40.1886 51.8074 40.5455C52.1654 40.9023 52.7024 41.0807 53.3289 41.0807V37.1557H53.4184ZM54.4029 37.1557V41.1699C55.0294 41.1699 55.5664 40.9023 55.9243 40.6347C56.2823 40.2778 56.4613 39.8318 56.4613 39.2074C56.4613 38.583 56.2823 38.1369 55.9243 37.7801C55.5664 37.4233 55.0294 37.2449 54.4029 37.1557ZM53.4184 36.3528V35.3716H54.4029V36.3528C55.3874 36.442 56.1928 36.7097 56.7298 37.2449C57.2668 37.7801 57.6248 38.4937 57.6248 39.2074C57.6248 40.0102 57.3563 40.6347 56.8193 41.1699C56.2823 41.7051 55.4769 42.0619 54.4924 42.0619V43.0432H53.5079V42.0619C52.6129 42.0619 51.8075 41.7051 51.2705 41.2591C50.644 40.7239 50.3755 40.0102 50.3755 39.2074C50.3755 38.3153 50.644 37.6909 51.2705 37.1557C51.718 36.6204 52.5234 36.3528 53.4184 36.3528Z" fill="white"/>
</g>
<defs>
<clipPath id="clip0_203_706">
<rect width="200" height="45" fill="white"/>
</clipPath>
</defs>
</svg>
