<svg width="24" height="24" viewBox="0 0 24 24" fill="none" xmlns="http://www.w3.org/2000/svg">
<path d="M22.0373 2.94561C20.7959 1.61131 19.0565 0.852106 17.234 0.849291C15.4101 0.851402 13.6688 1.6102 12.4255 2.94476L12.0018 3.39251L11.578 2.94476C9.11101 0.289566 4.95858 0.137082 2.30343 2.60411C2.18578 2.71347 2.07215 2.82705 1.96278 2.94476C-0.654261 5.76756 -0.654261 10.1301 1.96278 12.9529L11.3791 22.8829C11.7048 23.2269 12.2477 23.2416 12.5916 22.9158C12.6029 22.9052 12.6139 22.8942 12.6245 22.8829L22.0374 12.9529C24.6542 10.1304 24.6542 5.76811 22.0373 2.94561ZM20.7962 11.7718H20.7953L12.0018 21.0465L3.20738 11.7718C1.20811 9.61487 1.20811 6.2819 3.20738 4.12502C5.02296 2.15721 8.09006 2.03383 10.0579 3.8494C10.1534 3.93756 10.2453 4.02948 10.3335 4.12502L11.3791 5.22809C11.7236 5.57045 12.2799 5.57045 12.6245 5.22809L13.6701 4.12587C15.4857 2.15807 18.5528 2.03468 20.5206 3.85026C20.6161 3.93841 20.708 4.03033 20.7962 4.12587C22.8129 6.28617 22.8276 9.62523 20.7962 11.7718Z" fill="white"/>
</svg>
