<svg width="40" height="40" viewBox="0 0 40 40" fill="none" xmlns="http://www.w3.org/2000/svg">
<rect width="40" height="40" rx="20" fill="#CD008D"/>
<path d="M30.7333 15.2947H9.26691C8.80556 15.2947 8.43164 15.6686 8.43164 16.1299V21.2808C8.43164 21.7421 8.80556 22.116 9.26691 22.116H30.7333C31.1946 22.116 31.5685 21.7421 31.5685 21.2808V16.1299C31.5685 15.6686 31.1946 15.2947 30.7333 15.2947ZM29.898 20.4454H10.1022V16.9652H29.898V20.4454H29.898Z" fill="white"/>
<path d="M28.5958 21.178L27.4615 30.3295H12.5111L11.3765 21.178L9.71875 21.3835L10.9438 31.2675C10.9956 31.6859 11.3512 32 11.7727 32H28.1996C28.6212 32 28.9767 31.6859 29.0288 31.2675L30.2538 21.3835L28.5958 21.178Z" fill="white"/>
<path d="M19.9861 8C16.6854 8 14 10.6854 14 13.9861V16.13H15.6705V13.9861C15.6705 11.6064 17.6064 9.67053 19.9861 9.67053C22.3657 9.67053 24.3016 11.6064 24.3016 13.9861V16.13H25.9722V13.9861C25.9722 10.6854 23.2868 8 19.9861 8Z" fill="white"/>
</svg>
