<svg width="40" height="40" viewBox="0 0 40 40" fill="none" xmlns="http://www.w3.org/2000/svg">
<rect width="40" height="40" rx="20" fill="#E0E0E0"/>
<path d="M30.0373 10.9456C28.7959 9.61131 27.0565 8.85211 25.234 8.84929C23.4101 8.8514 21.6688 9.6102 20.4255 10.9448L20.0018 11.3925L19.578 10.9448C17.111 8.28957 12.9586 8.13708 10.3034 10.6041C10.1858 10.7135 10.0721 10.8271 9.96278 10.9448C7.34574 13.7676 7.34574 18.1301 9.96278 20.9529L19.3791 30.8829C19.7048 31.2269 20.2477 31.2416 20.5916 30.9158C20.6029 30.9052 20.6139 30.8942 20.6245 30.8829L30.0374 20.9529C32.6542 18.1304 32.6542 13.7681 30.0373 10.9456ZM28.7962 19.7718H28.7953L20.0018 29.0465L11.2074 19.7718C9.20811 17.6149 9.20811 14.2819 11.2074 12.125C13.023 10.1572 16.0901 10.0338 18.0579 11.8494C18.1534 11.9376 18.2453 12.0295 18.3335 12.125L19.3791 13.2281C19.7236 13.5704 20.2799 13.5704 20.6245 13.2281L21.6701 12.1259C23.4857 10.1581 26.5528 10.0347 28.5206 11.8503C28.6161 11.9384 28.708 12.0303 28.7962 12.1259C30.8129 14.2862 30.8276 17.6252 28.7962 19.7718Z" fill="black"/>
</svg>
