<svg width="40" height="40" viewBox="0 0 40 40" fill="none" xmlns="http://www.w3.org/2000/svg">
<rect width="40" height="40" rx="20" fill="#E0E0E0"/>
<g clip-path="url(#clip0_203_535)">
<path d="M31.25 27.9274H30.7688V11.3281C30.7688 10.9139 30.433 10.5781 30.0188 10.5781H25.4441C25.0299 10.5781 24.6941 10.9139 24.6941 11.3281V27.9274H23.0375V14.828C23.0375 14.4138 22.7017 14.078 22.2875 14.078H17.7128C17.2986 14.078 16.9628 14.4138 16.9628 14.828V27.9274H15.3063V18.3281C15.3063 17.9139 14.9705 17.5781 14.5563 17.5781H9.98157C9.56738 17.5781 9.23157 17.9139 9.23157 18.3281V27.9274H8.75C8.33582 27.9274 8 28.2632 8 28.6774C8 29.0916 8.33582 29.4274 8.75 29.4274H31.25C31.6642 29.4274 32 29.0916 32 28.6774C32 28.2632 31.6642 27.9274 31.25 27.9274ZM26.1939 12.0781H29.2686V27.9274H26.1939V12.0781ZM18.4628 27.9274V15.578H21.5375V27.9274H18.4628ZM10.7316 19.0781H13.8063V27.9274H10.7316V19.0781Z" fill="black"/>
</g>
<defs>
<clipPath id="clip0_203_535">
<rect width="24" height="24" fill="white" transform="translate(8 8)"/>
</clipPath>
</defs>
</svg>
