<svg width="350" height="79" viewBox="0 0 350 79" fill="none" xmlns="http://www.w3.org/2000/svg">
<path fill-rule="evenodd" clip-rule="evenodd" d="M38.0382 27.4875C36.9419 24.8252 34.9058 19.5006 33.3396 17.4648C31.6168 15.2723 27.7013 14.1761 25.1953 13.7063H25.0387H24.8821C23.4725 13.3931 21.9063 13.0799 20.4967 13.0799C15.9547 13.0799 13.6054 14.0195 13.6054 18.8742C13.6054 21.2233 14.3885 23.5723 15.3282 25.6082C16.8944 29.3667 18.9305 32.812 21.4364 35.9441C22.0629 36.7271 24.4122 39.546 25.8218 40.329C28.1711 35.6309 31.6168 31.7158 36.472 29.3667L38.3515 28.2705L38.0382 27.4875ZM42.267 26.3912L42.5802 29.0535C42.5802 30.1497 42.267 30.9327 41.3273 31.5592L38.1949 33.2818C34.436 35.0045 31.6168 38.1365 29.4241 42.3648C28.4844 44.0875 27.5446 44.8705 25.9784 44.8705C23.6291 44.8705 20.9666 42.8347 17.6775 38.6063C14.8583 35.1611 12.509 31.246 10.9428 27.1742C9.53322 23.8856 8.90674 21.0667 8.90674 18.561C8.90674 11.6704 12.6656 8.38174 20.1834 8.38174C21.7497 8.38174 23.4725 8.53835 25.6652 9.16477C30.8337 10.1044 34.4359 11.9836 36.472 14.4893C38.0382 16.212 39.9177 20.1271 42.267 26.3912Z" fill="#41FFE5"/>
<path fill-rule="evenodd" clip-rule="evenodd" d="M38.1951 55.0498C38.1951 55.8328 38.3517 56.6158 38.8216 57.2422C40.0745 58.9649 43.8334 59.2781 45.8695 59.2781L50.8814 58.8083C54.327 58.3385 57.4594 56.4592 60.2786 54.4234C61.0617 53.797 63.7243 51.7611 64.3508 50.3517C59.8087 47.846 56.2065 44.2441 54.327 39.3894L53.8572 38.1365H53.3873C50.8814 38.9196 44.7731 40.7988 43.0503 42.3648C40.8576 44.0875 39.6047 48.3158 38.8216 50.9781C38.5083 52.2309 38.3517 53.6403 38.1951 55.0498ZM57.1462 34.6912L58.3992 37.9799C59.8087 41.7384 62.6279 44.5573 66.5434 46.7498C68.1096 47.6894 68.8928 48.629 68.8928 50.0384C68.8928 52.5441 66.8567 55.2064 62.9412 58.1819C58.869 61.1573 55.2667 62.88 51.5078 63.3498L46.1827 63.8196C38.0384 63.8196 33.9663 60.8441 33.9663 54.8932C34.1229 53.0139 34.2796 51.2913 34.5928 49.8818C36.0024 44.5573 37.8818 40.9554 40.2311 39.0762C41.954 37.5101 46.1827 35.7875 52.4476 33.9082L54.7969 33.595C55.8932 33.4384 56.6763 33.9082 57.1462 34.6912Z" fill="#CD008D"/>
<path fill-rule="evenodd" clip-rule="evenodd" d="M4.67824 64.9158C4.83486 65.229 5.1481 65.3856 5.30472 65.5422C7.02755 66.9517 9.37686 68.9875 11.2563 69.9272H11.4129H11.5696C12.8225 70.7102 14.0755 71.0234 15.6417 71.0234C18.1476 71.0234 21.7499 69.4573 24.0992 68.5177C25.9787 67.7347 29.1111 66.1687 29.1111 63.8196C28.9545 60.5309 24.8823 56.3026 22.8463 54.2667C21.1234 52.7007 18.6175 51.4479 16.4248 50.5082C14.0755 49.5686 11.5696 48.7856 9.06362 48.7856C8.75038 48.7856 8.28052 48.7856 7.81066 48.9422V49.0988C8.43714 53.4837 8.43714 58.0252 6.24445 62.0969L4.67824 64.9158ZM2.1723 60.0611C3.58189 57.2422 3.89513 53.7969 3.26865 49.8818C2.64216 46.4365 4.52162 44.5573 8.907 44.5573C11.5696 44.5573 14.5454 45.1837 17.991 46.5931C21.1234 47.846 23.786 49.412 25.8221 51.2913C30.8339 56.146 33.4965 60.3743 33.4965 63.9762C33.4965 67.7347 30.9906 70.7102 25.6654 72.9026C21.2801 74.7819 17.991 75.7215 15.4851 75.7215C13.449 75.7215 11.4129 75.2517 9.37686 73.9989C7.49741 73.0592 5.1481 71.3366 2.32892 68.8309C0.919336 67.4215 0.13623 66.3253 0.13623 65.0724C0.13623 64.446 0.292852 63.8196 0.762715 62.88L2.1723 60.0611Z" fill="#FFB232"/>
<path d="M205.578 48.8415C204.325 48.8415 203.229 48.5283 202.446 48.0585C201.663 47.5887 201.036 46.9623 200.41 46.1793C199.94 45.3962 199.626 44.7698 199.313 43.9868C199.157 43.2038 199 42.734 199 42.4208C199 41.4811 199.157 40.5415 199.626 39.7585C200.096 38.9755 200.566 38.3491 201.349 37.7226C201.976 37.2528 202.759 36.783 203.385 36.4698C204.168 36.1566 204.795 36 205.421 36C206.048 36 206.831 36.1566 207.614 36.4698C208.397 36.783 209.024 37.2528 209.65 37.7226C210.277 38.1925 210.903 38.9755 211.216 39.6019C211.686 40.3849 211.843 41.1679 211.843 41.951C211.843 43.2038 211.686 44.3 211.216 45.2396C210.747 46.1793 210.12 46.8057 209.494 47.2755C208.867 47.7453 208.084 48.2151 207.301 48.3717C206.831 48.8415 206.205 48.8415 205.578 48.8415Z" fill="#E13DB0"/>
<path fill-rule="evenodd" clip-rule="evenodd" d="M341.413 44.2736C341.256 41.4548 339.69 39.1057 336.557 39.1057C333.425 39.1057 331.389 41.4548 330.762 44.2736H341.413ZM330.606 50.3812C331.389 54.1397 334.208 56.6454 338.28 56.6454C340.629 56.6454 343.135 56.019 345.328 55.2359C345.485 55.2359 345.641 55.0793 345.641 55.0793C345.798 55.0793 345.955 55.0793 346.111 55.0793C346.894 55.0793 347.364 55.5492 347.677 56.3322L348.461 59.3076C348.461 59.6209 348.617 59.9341 348.617 60.0907C348.617 61.0303 347.991 61.5001 347.208 61.8133C344.232 63.2228 340.16 63.8492 336.871 63.8492C327.16 63.8492 321.365 57.585 321.365 47.8755C321.365 38.6359 327.473 32.0585 336.871 32.0585C340.316 32.0585 343.605 33.3114 346.111 35.817C349.087 38.9491 349.87 42.8642 349.87 46.9359V47.8755C349.87 48.502 349.713 49.285 349.244 49.7548C348.774 50.2246 347.834 50.3812 347.208 50.3812H330.606ZM321.365 34.5642L320.739 38.7925C320.582 39.5755 320.112 40.2019 319.172 40.2019C319.016 40.2019 319.016 40.2019 318.859 40.2019H318.703H318.546C318.076 40.0453 317.606 40.0453 317.136 40.0453C315.257 40.0453 313.377 41.1416 312.124 42.3944V61.0303C312.124 62.4397 311.341 63.2228 309.932 63.2228H305.546C304.137 63.2228 303.354 62.4397 303.354 61.0303V35.034C303.354 33.6246 304.137 32.8415 305.546 32.8415H309.305C310.558 32.8415 311.498 33.3114 311.498 34.7208V34.8774C313.221 33.1548 315.257 32.2151 318.076 32.2151C318.703 32.2151 319.329 32.3717 319.956 32.5283C320.739 32.6849 321.052 33.1548 321.052 33.9378C321.365 34.0944 321.365 34.251 321.365 34.5642ZM290.511 48.0322C290.511 43.9604 289.414 39.2623 284.403 39.2623C279.391 39.2623 278.138 43.6472 278.138 47.8755C278.138 50.3812 278.608 53.6699 280.487 55.5492C281.583 56.4888 282.836 56.9586 284.246 56.9586C289.101 56.802 290.511 52.1039 290.511 48.0322ZM299.282 48.0322C299.282 57.2718 293.487 63.8492 284.089 63.8492C274.222 63.8492 269.21 57.2718 269.21 47.8755C269.21 38.6359 275.005 32.0585 284.403 32.0585C294.27 32.0585 299.282 38.4793 299.282 48.0322ZM249.789 39.2623H247.753C247.283 39.2623 246.657 39.2623 246.187 38.7925C245.717 38.3227 245.717 37.6963 245.717 37.0699V34.8774C245.717 33.7812 246.344 32.9981 247.44 32.9981H249.789V27.2038C249.789 25.7944 250.572 25.3245 251.825 25.0113L256.211 24.5415C256.367 24.5415 256.367 24.5415 256.524 24.5415C257.777 24.5415 258.404 25.3245 258.404 26.5774V32.9981H264.355C265.451 32.9981 266.235 33.468 266.235 34.7208V37.5397C266.235 38.6359 265.451 39.4189 264.355 39.4189H258.404V52.2605C258.404 53.3567 258.404 54.9227 259.03 55.8624C259.5 56.6454 260.44 56.802 261.223 56.802C262.476 56.802 263.572 56.4888 264.825 56.1756C265.138 56.1756 265.295 56.019 265.608 56.019C266.391 56.019 266.861 56.4888 267.018 57.2718L267.644 60.2473C267.644 60.4039 267.801 60.5605 267.801 60.7171C267.801 61.6567 267.331 62.1265 266.548 62.4397C264.355 63.3794 262.006 63.8492 259.656 63.8492C256.994 63.8492 253.861 63.2228 251.982 61.1869C251.512 60.7171 251.199 60.2473 250.886 59.6209C250.416 58.5246 250.103 57.4284 249.946 56.3322C249.789 54.9227 249.789 53.3567 249.789 51.9473V39.2623ZM215.646 59.151L216.899 55.3925C217.212 54.6095 217.682 53.9831 218.622 53.9831C218.935 53.9831 219.405 54.1397 219.718 54.1397C222.381 55.0793 225.357 55.8624 228.332 55.8624C231.151 55.8624 234.441 54.6095 234.441 51.3208C234.441 48.8152 232.561 47.5623 230.525 46.6227L222.851 42.7076C218.465 40.5152 215.489 36.9132 215.489 31.9019C215.489 24.2283 223.007 20 229.899 20C233.814 20 237.26 20.6264 240.862 22.1925C241.645 22.5057 242.428 23.1321 242.428 24.0717C242.428 24.3849 242.272 24.6981 242.272 25.1679L240.862 28.7698C240.549 29.5529 240.079 30.1793 239.139 30.1793C238.669 30.1793 238.356 30.0227 238.043 29.8661C235.85 28.9264 232.874 28.1434 230.525 28.1434C228.176 28.1434 225.2 29.083 225.2 31.9019C225.2 34.0944 227.393 35.3472 228.959 36.1302L235.537 39.2623C240.392 41.6114 243.838 45.0567 243.838 50.6944C243.838 59.3076 236.79 64.1624 228.646 64.1624C224.887 64.1624 220.658 63.536 217.056 62.2831C216.272 61.9699 215.646 61.5001 215.646 60.5605C215.489 59.7775 215.489 59.4643 215.646 59.151ZM173.358 41.9246V42.0812C173.358 42.3944 173.358 42.8642 173.358 43.1774C173.358 44.2736 173.358 45.2133 173.358 46.3095C173.358 47.8755 173.358 49.4416 173.358 51.0076V60.8737C173.358 62.2831 172.732 63.0662 171.166 63.0662H167.25C165.841 63.0662 165.057 62.2831 165.057 60.8737V44.5869C165.057 43.334 164.901 41.6114 164.118 40.5151C163.491 39.7321 162.395 39.5755 161.455 39.5755C159.262 39.5755 157.226 40.8284 155.504 42.2378V60.8737C155.504 62.2831 154.72 63.0662 153.311 63.0662H149.082C147.673 63.0662 146.889 62.2831 146.889 60.8737V34.8774C146.889 33.6246 147.673 32.8415 149.082 32.8415H152.998C154.251 32.8415 155.034 33.3114 155.19 34.5642V34.7208C157.54 32.9981 160.359 32.0585 163.335 32.0585C166.31 32.0585 169.286 33.1548 171.009 35.5038C173.828 33.1548 177.431 32.0585 181.033 32.0585C183.069 32.0585 184.948 32.5283 186.671 33.468C188.081 34.251 189.177 35.5038 189.96 36.7566C191.37 39.4189 191.526 42.7076 191.526 45.6831V60.7171C191.526 62.1265 190.9 62.9095 189.334 62.9095H185.105C183.695 62.9095 182.912 62.1265 182.912 60.7171V44.5869C182.912 43.334 182.756 41.6114 181.973 40.6718C181.346 39.8887 180.25 39.7321 179.153 39.7321C177.431 39.7321 175.081 40.6718 173.358 41.9246ZM134.83 61.0303C132.167 62.7529 129.191 63.8492 126.059 63.8492C118.854 63.8492 116.035 59.151 116.035 52.5737V34.8774C116.035 33.468 116.975 32.8415 118.228 32.8415H122.457C123.866 32.8415 124.649 33.468 124.649 34.8774V51.1642C124.649 52.4171 124.806 54.1397 125.589 55.0793C126.215 55.8624 127.312 56.019 128.252 56.019C130.288 56.019 132.794 54.9227 134.516 53.5133V34.8774C134.516 33.468 135.299 32.8415 136.709 32.8415H140.938C142.347 32.8415 143.131 33.468 143.131 34.8774V60.7171C143.131 62.2831 142.504 63.0662 140.938 63.0662H137.179C136.083 63.0662 135.143 62.4397 134.986 61.1869L134.83 61.0303ZM96.9274 55.3925H111.337C112.589 55.3925 113.529 56.1756 113.529 57.4284V61.0303C113.529 62.4397 112.746 63.2228 111.337 63.2228H90.1927C88.6265 63.2228 88 62.4397 88 60.8737V22.8189C88 21.566 88.7831 20.6264 90.1927 20.6264H94.8913C96.4575 20.6264 97.084 21.4094 97.084 22.8189V55.3925H96.9274Z" fill="#071F5D"/>
<path fill-rule="evenodd" clip-rule="evenodd" d="M38.0382 27.4875C36.9419 24.8252 34.9058 19.5006 33.3396 17.4648C31.6168 15.2723 27.7013 14.1761 25.1953 13.7063H25.0387H24.8821C23.4725 13.3931 21.9063 13.0799 20.4967 13.0799C15.9547 13.0799 13.6054 14.0195 13.6054 18.8742C13.6054 21.2233 14.3885 23.5723 15.3282 25.6082C16.8944 29.3667 18.9305 32.812 21.4364 35.9441C22.0629 36.7271 24.4122 39.546 25.8218 40.329C28.1711 35.6309 31.6168 31.7158 36.472 29.3667L38.3515 28.2705L38.0382 27.4875ZM42.267 26.3912L42.5802 29.0535C42.5802 30.1497 42.267 30.9327 41.3273 31.5592L38.1949 33.2818C34.436 35.0045 31.6168 38.1365 29.4241 42.3648C28.4844 44.0875 27.5446 44.8705 25.9784 44.8705C23.6291 44.8705 20.9666 42.8347 17.6775 38.6063C14.8583 35.1611 12.509 31.246 10.9428 27.1742C9.53322 23.8856 8.90674 21.0667 8.90674 18.561C8.90674 11.6704 12.6656 8.38174 20.1834 8.38174C21.7497 8.38174 23.4725 8.53835 25.6652 9.16477C30.8337 10.1044 34.4359 11.9836 36.472 14.4893C38.0382 16.212 39.9177 20.1271 42.267 26.3912Z" fill="#41FFE5"/>
<path fill-rule="evenodd" clip-rule="evenodd" d="M38.1951 55.0498C38.1951 55.8328 38.3517 56.6158 38.8216 57.2422C40.0745 58.9649 43.8334 59.2781 45.8695 59.2781L50.8814 58.8083C54.327 58.3385 57.4594 56.4592 60.2786 54.4234C61.0617 53.797 63.7243 51.7611 64.3508 50.3517C59.8087 47.846 56.2065 44.2441 54.327 39.3894L53.8572 38.1365H53.3873C50.8814 38.9196 44.7731 40.7988 43.0503 42.3648C40.8576 44.0875 39.6047 48.3158 38.8216 50.9781C38.5083 52.2309 38.3517 53.6403 38.1951 55.0498ZM57.1462 34.6912L58.3992 37.9799C59.8087 41.7384 62.6279 44.5573 66.5434 46.7498C68.1096 47.6894 68.8928 48.629 68.8928 50.0384C68.8928 52.5441 66.8567 55.2064 62.9412 58.1819C58.869 61.1573 55.2667 62.88 51.5078 63.3498L46.1827 63.8196C38.0384 63.8196 33.9663 60.8441 33.9663 54.8932C34.1229 53.0139 34.2796 51.2913 34.5928 49.8818C36.0024 44.5573 37.8818 40.9554 40.2311 39.0762C41.954 37.5101 46.1827 35.7875 52.4476 33.9082L54.7969 33.595C55.8932 33.4384 56.6763 33.9082 57.1462 34.6912Z" fill="#CD008D"/>
<path fill-rule="evenodd" clip-rule="evenodd" d="M4.67824 64.9158C4.83486 65.229 5.1481 65.3856 5.30472 65.5422C7.02755 66.9517 9.37686 68.9875 11.2563 69.9272H11.4129H11.5696C12.8225 70.7102 14.0755 71.0234 15.6417 71.0234C18.1476 71.0234 21.7499 69.4573 24.0992 68.5177C25.9787 67.7347 29.1111 66.1687 29.1111 63.8196C28.9545 60.5309 24.8823 56.3026 22.8463 54.2667C21.1234 52.7007 18.6175 51.4479 16.4248 50.5082C14.0755 49.5686 11.5696 48.7856 9.06362 48.7856C8.75038 48.7856 8.28052 48.7856 7.81066 48.9422V49.0988C8.43714 53.4837 8.43714 58.0252 6.24445 62.0969L4.67824 64.9158ZM2.1723 60.0611C3.58189 57.2422 3.89513 53.7969 3.26865 49.8818C2.64216 46.4365 4.52162 44.5573 8.907 44.5573C11.5696 44.5573 14.5454 45.1837 17.991 46.5931C21.1234 47.846 23.786 49.412 25.8221 51.2913C30.8339 56.146 33.4965 60.3743 33.4965 63.9762C33.4965 67.7347 30.9906 70.7102 25.6654 72.9026C21.2801 74.7819 17.991 75.7215 15.4851 75.7215C13.449 75.7215 11.4129 75.2517 9.37686 73.9989C7.49741 73.0592 5.1481 71.3366 2.32892 68.8309C0.919336 67.4215 0.13623 66.3253 0.13623 65.0724C0.13623 64.446 0.292852 63.8196 0.762715 62.88L2.1723 60.0611Z" fill="#FFB232"/>
</svg>
