<svg width="350" height="79" viewBox="0 0 350 79" fill="none" xmlns="http://www.w3.org/2000/svg">
<g clip-path="url(#clip0_203_518)">
<path d="M206.719 37.1969C205.466 37.1969 204.37 36.8837 203.587 36.4139C202.804 35.9441 202.177 35.3176 201.551 34.5346C201.081 33.7516 200.768 33.1252 200.454 32.3422C200.298 31.5591 200.141 31.0893 200.141 30.7761C200.141 29.8365 200.298 28.8969 200.768 28.1138C201.237 27.3308 201.707 26.7044 202.49 26.078C203.117 25.6082 203.9 25.1384 204.526 24.8252C205.31 24.5119 205.936 24.3553 206.563 24.3553C207.189 24.3553 207.972 24.5119 208.755 24.8252C209.538 25.1384 210.165 25.6082 210.791 26.078C211.418 26.5478 212.044 27.3308 212.358 27.9572C212.827 28.7403 212.984 29.5233 212.984 30.3063C212.984 31.5591 212.827 32.6554 212.358 33.595C211.888 34.5346 211.261 35.161 210.635 35.6308C210.008 36.1007 209.225 36.5705 208.442 36.7271C207.972 37.1969 207.346 37.1969 206.719 37.1969Z" fill="#E13DB0"/>
<path fill-rule="evenodd" clip-rule="evenodd" d="M341.413 31.4026C341.256 28.5837 339.69 26.2346 336.558 26.2346C333.425 26.2346 331.389 28.5837 330.763 31.4026H341.413ZM330.606 37.5101C331.389 41.2686 334.209 43.7743 338.281 43.7743C340.63 43.7743 343.136 43.1479 345.329 42.3648C345.485 42.3648 345.642 42.2082 345.642 42.2082C345.798 42.2082 345.955 42.2082 346.112 42.2082C346.895 42.2082 347.365 42.6781 347.678 43.4611L348.461 46.4366C348.461 46.7498 348.618 47.063 348.618 47.2196C348.618 48.1592 347.991 48.629 347.208 48.9422C344.232 50.3517 340.16 50.9781 336.871 50.9781C327.161 50.9781 321.366 44.7139 321.366 35.0044C321.366 25.7648 327.474 19.1874 336.871 19.1874C340.317 19.1874 343.606 20.4403 346.112 22.9459C349.087 26.078 349.871 29.9931 349.871 34.0648V35.0044C349.871 35.6309 349.714 36.4139 349.244 36.8837C348.774 37.3535 347.835 37.5101 347.208 37.5101H330.606ZM321.366 21.6931L320.739 25.9214C320.582 26.7044 320.113 27.3308 319.173 27.3308C319.016 27.3308 319.016 27.3308 318.86 27.3308H318.703H318.546C318.077 27.1742 317.607 27.1742 317.137 27.1742C315.257 27.1742 313.378 28.2705 312.125 29.5233V48.1592C312.125 49.5686 311.342 50.3517 309.932 50.3517H305.547C304.137 50.3517 303.354 49.5686 303.354 48.1592V22.1629C303.354 20.7535 304.137 19.9704 305.547 19.9704H309.306C310.559 19.9704 311.498 20.4403 311.498 21.8497V22.0063C313.221 20.2837 315.257 19.344 318.077 19.344C318.703 19.344 319.33 19.5006 319.956 19.6572C320.739 19.8138 321.052 20.2837 321.052 21.0667C321.366 21.2233 321.366 21.3799 321.366 21.6931ZM290.511 35.1611C290.511 31.0893 289.415 26.3912 284.403 26.3912C279.391 26.3912 278.138 30.7761 278.138 35.0044C278.138 37.5101 278.608 40.7988 280.488 42.6781C281.584 43.6177 282.837 44.0875 284.246 44.0875C289.102 43.9309 290.511 39.2328 290.511 35.1611ZM299.282 35.1611C299.282 44.4007 293.487 50.9781 284.09 50.9781C274.223 50.9781 269.211 44.4007 269.211 35.0044C269.211 25.7648 275.006 19.1874 284.403 19.1874C294.27 19.1874 299.282 25.6082 299.282 35.1611ZM249.79 26.3912H247.754C247.284 26.3912 246.657 26.3912 246.188 25.9214C245.718 25.4516 245.718 24.8252 245.718 24.1988V22.0063C245.718 20.9101 246.344 20.1271 247.441 20.1271H249.79V14.3327C249.79 12.9233 250.573 12.4534 251.826 12.1402L256.211 11.6704C256.368 11.6704 256.368 11.6704 256.525 11.6704C257.778 11.6704 258.404 12.4534 258.404 13.7063V20.1271H264.356C265.452 20.1271 266.235 20.5969 266.235 21.8497V24.6686C266.235 25.7648 265.452 26.5478 264.356 26.5478H258.404V39.3894C258.404 40.4856 258.404 42.0516 259.03 42.9913C259.5 43.7743 260.44 43.9309 261.223 43.9309C262.476 43.9309 263.572 43.6177 264.825 43.3045C265.139 43.3045 265.295 43.1479 265.609 43.1479C266.392 43.1479 266.862 43.6177 267.018 44.4007L267.645 47.3762C267.645 47.5328 267.801 47.6894 267.801 47.846C267.801 48.7856 267.331 49.2554 266.548 49.5686C264.356 50.5083 262.006 50.9781 259.657 50.9781C256.994 50.9781 253.862 50.3517 251.983 48.3158C251.513 47.846 251.199 47.3762 250.886 46.7498C250.416 45.6535 250.103 44.5573 249.946 43.4611C249.79 42.0516 249.79 40.4856 249.79 39.0762V26.3912ZM215.646 46.28L216.899 42.5215C217.213 41.7384 217.683 41.112 218.622 41.112C218.936 41.112 219.405 41.2686 219.719 41.2686C222.381 42.2082 225.357 42.9913 228.333 42.9913C231.152 42.9913 234.441 41.7384 234.441 38.4497C234.441 35.9441 232.562 34.6912 230.525 33.7516L222.851 29.8365C218.466 27.6441 215.49 24.0422 215.49 19.0308C215.49 11.3572 223.008 7.12891 229.899 7.12891C233.815 7.12891 237.26 7.75532 240.862 9.32137C241.646 9.63457 242.429 10.261 242.429 11.2006C242.429 11.5138 242.272 11.827 242.272 12.2968L240.862 15.8987C240.549 16.6818 240.079 17.3082 239.14 17.3082C238.67 17.3082 238.357 17.1516 238.043 16.995C235.851 16.0553 232.875 15.2723 230.525 15.2723C228.176 15.2723 225.2 16.2119 225.2 19.0308C225.2 21.2233 227.393 22.4761 228.959 23.2591L235.537 26.3912C240.393 28.7403 243.838 32.1856 243.838 37.8233C243.838 46.4366 236.79 51.2913 228.646 51.2913C224.887 51.2913 220.658 50.6649 217.056 49.412C216.273 49.0988 215.646 48.629 215.646 47.6894C215.49 46.9064 215.49 46.5932 215.646 46.28ZM173.359 29.0535V29.2101C173.359 29.5233 173.359 29.9931 173.359 30.3063C173.359 31.4026 173.359 32.3422 173.359 33.4384C173.359 35.0044 173.359 36.5705 173.359 38.1365V48.0026C173.359 49.412 172.732 50.1951 171.166 50.1951H167.251C165.841 50.1951 165.058 49.412 165.058 48.0026V31.7158C165.058 30.4629 164.901 28.7403 164.118 27.6441C163.492 26.861 162.395 26.7044 161.456 26.7044C159.263 26.7044 157.227 27.9573 155.504 29.3667V48.0026C155.504 49.412 154.721 50.1951 153.311 50.1951H149.083C147.673 50.1951 146.89 49.412 146.89 48.0026V22.0063C146.89 20.7535 147.673 19.9704 149.083 19.9704H152.998C154.251 19.9704 155.034 20.4403 155.191 21.6931V21.8497C157.54 20.1271 160.359 19.1874 163.335 19.1874C166.311 19.1874 169.287 20.2837 171.01 22.6327C173.829 20.2837 177.431 19.1874 181.033 19.1874C183.069 19.1874 184.949 19.6572 186.672 20.5969C188.081 21.3799 189.178 22.6327 189.961 23.8856C191.37 26.5478 191.527 29.8365 191.527 32.812V47.846C191.527 49.2554 190.9 50.0384 189.334 50.0384H185.105C183.696 50.0384 182.913 49.2554 182.913 47.846V31.7158C182.913 30.4629 182.756 28.7403 181.973 27.8007C181.347 27.0176 180.25 26.861 179.154 26.861C177.431 26.861 175.082 27.8007 173.359 29.0535ZM134.83 48.1592C132.168 49.8819 129.192 50.9781 126.059 50.9781C118.855 50.9781 116.036 46.2799 116.036 39.7026V22.0063C116.036 20.5969 116.975 19.9704 118.228 19.9704H122.457C123.867 19.9704 124.65 20.5969 124.65 22.0063V38.2931C124.65 39.546 124.806 41.2686 125.589 42.2082C126.216 42.9913 127.312 43.1479 128.252 43.1479C130.288 43.1479 132.794 42.0516 134.517 40.6422V22.0063C134.517 20.5969 135.3 19.9704 136.71 19.9704H140.938C142.348 19.9704 143.131 20.5969 143.131 22.0063V47.846C143.131 49.412 142.505 50.1951 140.938 50.1951H137.179C136.083 50.1951 135.143 49.5686 134.987 48.3158L134.83 48.1592ZM96.9279 42.5215H111.337C112.59 42.5215 113.53 43.3045 113.53 44.5573V48.1592C113.53 49.5686 112.747 50.3517 111.337 50.3517H90.1932C88.627 50.3517 88.0005 49.5686 88.0005 48.0026V9.94778C88.0005 8.69495 88.7836 7.75532 90.1932 7.75532H94.8918C96.458 7.75532 97.0845 8.53834 97.0845 9.94778V42.5215H96.9279Z" fill="#071F5D"/>
<path fill-rule="evenodd" clip-rule="evenodd" d="M38.0382 27.4875C36.9419 24.8252 34.9058 19.5006 33.3396 17.4648C31.6168 15.2723 27.7013 14.1761 25.1953 13.7063H25.0387H24.8821C23.4725 13.3931 21.9063 13.0799 20.4967 13.0799C15.9547 13.0799 13.6054 14.0195 13.6054 18.8742C13.6054 21.2233 14.3885 23.5723 15.3282 25.6082C16.8944 29.3667 18.9305 32.812 21.4364 35.9441C22.0629 36.7271 24.4122 39.546 25.8218 40.329C28.1711 35.6309 31.6168 31.7158 36.472 29.3667L38.3515 28.2705L38.0382 27.4875ZM42.267 26.3912L42.5802 29.0535C42.5802 30.1497 42.267 30.9327 41.3273 31.5592L38.1949 33.2818C34.436 35.0045 31.6168 38.1365 29.4241 42.3648C28.4844 44.0875 27.5446 44.8705 25.9784 44.8705C23.6291 44.8705 20.9666 42.8347 17.6775 38.6063C14.8583 35.1611 12.509 31.246 10.9428 27.1742C9.53322 23.8856 8.90674 21.0667 8.90674 18.561C8.90674 11.6704 12.6656 8.38174 20.1834 8.38174C21.7497 8.38174 23.4725 8.53835 25.6652 9.16477C30.8337 10.1044 34.4359 11.9836 36.472 14.4893C38.0382 16.212 39.9177 20.1271 42.267 26.3912Z" fill="#41FFE5"/>
<path fill-rule="evenodd" clip-rule="evenodd" d="M38.1951 55.0498C38.1951 55.8328 38.3517 56.6158 38.8216 57.2422C40.0745 58.9649 43.8334 59.2781 45.8695 59.2781L50.8814 58.8083C54.327 58.3385 57.4594 56.4592 60.2786 54.4234C61.0617 53.797 63.7243 51.7611 64.3508 50.3517C59.8087 47.846 56.2065 44.2441 54.327 39.3894L53.8572 38.1365H53.3873C50.8814 38.9196 44.7731 40.7988 43.0503 42.3648C40.8576 44.0875 39.6047 48.3158 38.8216 50.9781C38.5083 52.2309 38.3517 53.6403 38.1951 55.0498ZM57.1462 34.6912L58.3992 37.9799C59.8087 41.7384 62.6279 44.5573 66.5434 46.7498C68.1096 47.6894 68.8928 48.629 68.8928 50.0384C68.8928 52.5441 66.8567 55.2064 62.9412 58.1819C58.869 61.1573 55.2667 62.88 51.5078 63.3498L46.1827 63.8196C38.0384 63.8196 33.9663 60.8441 33.9663 54.8932C34.1229 53.0139 34.2796 51.2913 34.5928 49.8818C36.0024 44.5573 37.8818 40.9554 40.2311 39.0762C41.954 37.5101 46.1827 35.7875 52.4476 33.9082L54.7969 33.595C55.8932 33.4384 56.6763 33.9082 57.1462 34.6912Z" fill="#CD008D"/>
<path fill-rule="evenodd" clip-rule="evenodd" d="M4.67824 64.9158C4.83486 65.229 5.1481 65.3856 5.30472 65.5422C7.02755 66.9517 9.37686 68.9875 11.2563 69.9272H11.4129H11.5696C12.8225 70.7102 14.0755 71.0234 15.6417 71.0234C18.1476 71.0234 21.7499 69.4573 24.0992 68.5177C25.9787 67.7347 29.1111 66.1687 29.1111 63.8196C28.9545 60.5309 24.8823 56.3026 22.8463 54.2667C21.1234 52.7007 18.6175 51.4479 16.4248 50.5082C14.0755 49.5686 11.5696 48.7856 9.06362 48.7856C8.75038 48.7856 8.28052 48.7856 7.81066 48.9422V49.0988C8.43714 53.4837 8.43714 58.0252 6.24445 62.0969L4.67824 64.9158ZM2.1723 60.0611C3.58189 57.2422 3.89513 53.7969 3.26865 49.8818C2.64216 46.4365 4.52162 44.5573 8.907 44.5573C11.5696 44.5573 14.5454 45.1837 17.991 46.5931C21.1234 47.846 23.786 49.412 25.8221 51.2913C30.8339 56.146 33.4965 60.3743 33.4965 63.9762C33.4965 67.7347 30.9906 70.7102 25.6654 72.9026C21.2801 74.7819 17.991 75.7215 15.4851 75.7215C13.449 75.7215 11.4129 75.2517 9.37686 73.9989C7.49741 73.0592 5.1481 71.3366 2.32892 68.8309C0.919336 67.4215 0.13623 66.3253 0.13623 65.0724C0.13623 64.446 0.292852 63.8196 0.762715 62.88L2.1723 60.0611Z" fill="#FFB232"/>
<path d="M342.04 65.8555H343.763V69.9272H348.305V65.8555H350.027V75.5649H348.305V71.18H343.763V75.5649H342.04V65.8555ZM331.389 65.8555H333.112V73.3724L337.654 65.8555H339.377V75.5649H337.654V68.2045L333.112 75.5649H331.389V65.8555ZM324.968 71.18V69.9272C325.594 69.9272 326.064 69.9272 326.378 69.7706C326.691 69.7706 326.847 69.614 327.161 69.3007C327.317 68.9875 327.474 68.6743 327.474 68.3611C327.474 67.8913 327.317 67.5781 327.004 67.2649C326.691 66.9517 326.378 66.7951 325.908 66.7951C324.968 66.7951 324.342 67.2649 323.872 68.3611L322.305 68.0479C322.775 66.1687 324.028 65.3856 325.908 65.3856C327.004 65.3856 327.787 65.6989 328.414 66.1687C329.04 66.7951 329.353 67.4215 329.353 68.2045C329.353 68.9875 329.04 69.614 328.257 70.0838C328.727 70.397 329.04 70.7102 329.353 71.0234C329.667 71.4932 329.667 71.963 329.667 72.4328C329.667 73.3724 329.353 73.9989 328.727 74.6253C328.1 75.0951 327.161 75.4083 326.064 75.4083C323.872 75.4083 322.619 74.4687 322.149 72.4328L323.715 72.1196C323.872 72.746 324.185 73.2158 324.498 73.529C324.968 73.8423 325.438 73.9989 325.908 73.9989C326.534 73.9989 327.004 73.8423 327.317 73.529C327.631 73.2158 327.944 72.746 327.944 72.2762C327.944 71.963 327.787 71.4932 327.631 71.3366C327.474 71.0234 327.161 70.8668 326.847 70.8668C326.534 70.8668 326.064 70.7102 325.438 70.7102C325.281 71.18 325.125 71.18 324.968 71.18ZM318.86 70.7102C318.233 71.0234 317.294 71.18 316.197 71.3366C315.571 71.4932 315.101 71.4932 314.788 71.6498C314.474 71.8064 314.318 71.963 314.161 72.1196C314.005 72.4328 314.005 72.5894 314.005 72.9026C314.005 73.3724 314.161 73.6857 314.474 73.9989C314.788 74.3121 315.257 74.4687 315.884 74.4687C316.51 74.4687 317.137 74.3121 317.607 73.9989C318.077 73.6857 318.547 73.3724 318.703 72.9026C318.86 72.5894 319.016 71.963 319.016 71.18L318.86 70.7102ZM319.016 74.4687C318.39 74.9385 317.763 75.4083 317.294 75.5649C316.667 75.7215 316.041 75.8781 315.414 75.8781C314.318 75.8781 313.535 75.5649 312.908 75.0951C312.282 74.6253 311.968 73.8423 311.968 73.0592C311.968 72.5894 312.125 72.1196 312.282 71.8064C312.438 71.3366 312.752 71.0234 313.065 70.8668C313.378 70.5536 313.848 70.397 314.318 70.397C314.631 70.2404 315.101 70.2404 315.727 70.0838C317.137 69.9272 318.077 69.7706 318.703 69.4573C318.703 69.3007 318.703 69.1441 318.703 68.9875C318.703 68.3611 318.547 67.8913 318.233 67.5781C317.763 67.2649 317.137 66.9517 316.354 66.9517C315.571 66.9517 314.944 67.1083 314.631 67.4215C314.318 67.7347 314.005 68.2045 313.848 68.8309L312.282 68.6743C312.438 68.0479 312.595 67.4215 313.065 66.9517C313.378 66.4819 313.848 66.1687 314.474 66.0121C315.101 65.8555 315.884 65.6988 316.667 65.6988C317.45 65.6988 318.233 65.8555 318.703 66.0121C319.173 66.1687 319.643 66.4819 319.799 66.7951C320.113 67.1083 320.269 67.4215 320.269 67.8913C320.269 68.2045 320.426 68.6743 320.426 69.4573V71.6498C320.426 73.2158 320.426 74.1555 320.583 74.6253C320.583 75.0951 320.739 75.4083 321.052 75.8781H319.33C319.173 75.2517 319.016 74.9385 319.016 74.4687ZM306.173 65.8555H311.812V67.2649H307.896V75.7215H306.173V65.8555ZM301.945 70.7102C301.318 71.0234 300.378 71.18 299.282 71.3366C298.656 71.4932 298.186 71.4932 297.873 71.6498C297.559 71.8064 297.403 71.963 297.246 72.1196C297.089 72.4328 297.089 72.5894 297.089 72.9026C297.089 73.3724 297.246 73.6857 297.559 73.9989C297.873 74.3121 298.342 74.4687 298.969 74.4687C299.595 74.4687 300.222 74.3121 300.692 73.9989C301.162 73.6857 301.631 73.3724 301.788 72.9026C301.945 72.5894 302.101 71.963 302.101 71.18L301.945 70.7102ZM301.945 74.4687C301.318 74.9385 300.692 75.4083 300.222 75.5649C299.595 75.7215 298.969 75.8781 298.342 75.8781C297.246 75.8781 296.463 75.5649 295.837 75.0951C295.21 74.6253 294.897 73.8423 294.897 73.0592C294.897 72.5894 295.053 72.1196 295.21 71.8064C295.367 71.3366 295.68 71.0234 295.993 70.8668C296.306 70.5536 296.776 70.397 297.246 70.397C297.559 70.2404 298.029 70.2404 298.656 70.0838C300.065 69.9272 301.005 69.7706 301.631 69.4573C301.631 69.3007 301.631 69.1441 301.631 68.9875C301.631 68.3611 301.475 67.8913 301.162 67.5781C300.692 67.2649 300.065 66.9517 299.282 66.9517C298.499 66.9517 297.873 67.1083 297.559 67.4215C297.246 67.7347 296.933 68.2045 296.776 68.8309L295.21 68.6743C295.367 68.0479 295.523 67.4215 295.993 66.9517C296.306 66.4819 296.776 66.1687 297.403 66.0121C298.029 65.8555 298.812 65.6988 299.595 65.6988C300.379 65.6988 301.162 65.8555 301.631 66.0121C302.101 66.1687 302.571 66.4819 302.728 66.7951C303.041 67.1083 303.198 67.4215 303.198 67.8913C303.198 68.2045 303.354 68.6743 303.354 69.4573V71.6498C303.354 73.2158 303.354 74.1555 303.511 74.6253C303.511 75.0951 303.668 75.4083 303.981 75.8781H302.258C302.101 75.2517 302.101 74.9385 301.945 74.4687ZM282.68 65.8555H285.186L287.692 73.6857L290.511 65.8555H292.861V75.5649H291.138V67.7347L288.319 75.5649H286.909L284.247 67.2649V75.5649H282.68V65.8555ZM275.789 71.6498V69.9272H280.958V71.6498H275.789ZM266.862 65.8555H274.849V67.2649H271.717V75.7215H269.994V67.2649H266.862V65.8555ZM259.187 69.7706H264.669C264.669 68.9875 264.356 68.3611 264.042 67.8913C263.573 67.2649 262.79 66.9517 262.006 66.9517C261.223 66.9517 260.597 67.2649 260.127 67.7347C259.5 68.2045 259.187 68.9875 259.187 69.7706ZM264.669 72.4328L266.392 72.5894C266.079 73.5291 265.609 74.3121 264.826 74.9385C264.042 75.5649 263.103 75.7215 262.006 75.7215C260.597 75.7215 259.5 75.2517 258.561 74.4687C257.778 73.5291 257.308 72.4328 257.308 70.7102C257.308 69.1441 257.778 67.7347 258.561 66.9517C259.344 66.0121 260.44 65.5422 261.85 65.5422C263.103 65.5422 264.199 66.0121 264.982 66.7951C265.765 67.7347 266.235 68.9875 266.235 70.5536C266.235 70.7102 266.235 70.8668 266.235 71.0234H259.031C259.031 72.1196 259.344 72.9026 259.97 73.529C260.44 74.1555 261.223 74.3121 262.006 74.3121C262.633 74.3121 263.103 74.1555 263.573 73.8423C264.042 73.6857 264.356 73.2158 264.669 72.4328ZM247.597 65.8555H249.32V69.9272H253.862V65.8555H255.585V75.5649H253.862V71.18H249.32V75.5649H247.597V65.8555ZM238.513 70.8668C238.513 72.1196 238.827 73.0592 239.296 73.6857C239.766 74.3121 240.393 74.6253 241.176 74.6253C241.959 74.6253 242.585 74.3121 243.055 73.6857C243.525 73.0592 243.838 72.1196 243.838 70.8668C243.838 69.614 243.525 68.6743 243.055 68.0479C242.585 67.4215 241.959 67.1083 241.176 67.1083C240.549 67.1083 239.923 67.4215 239.296 68.0479C238.827 68.6743 238.513 69.614 238.513 70.8668ZM237.104 79.3234V65.8555H238.67V67.1083C238.983 66.6385 239.453 66.1687 239.923 66.0121C240.393 65.6988 240.863 65.6988 241.489 65.6988C242.272 65.6988 243.055 65.8555 243.682 66.3253C244.308 66.7951 244.778 67.4215 245.091 68.2045C245.405 68.9875 245.561 69.7706 245.561 70.7102C245.561 71.6498 245.405 72.5894 245.091 73.3724C244.778 74.1555 244.152 74.7819 243.525 75.2517C242.899 75.7215 242.116 75.8781 241.332 75.8781C240.706 75.8781 240.236 75.7215 239.923 75.5649C239.453 75.4083 239.14 75.0951 238.827 74.6253V79.3234H237.104ZM227.863 69.7706H233.345C233.345 68.9875 233.032 68.3611 232.718 67.8913C232.248 67.2649 231.465 66.9517 230.682 66.9517C229.899 66.9517 229.273 67.2649 228.803 67.7347C228.176 68.2045 227.863 68.9875 227.863 69.7706ZM233.188 72.4328L234.911 72.5894C234.598 73.5291 234.128 74.3121 233.345 74.9385C232.562 75.5649 231.622 75.7215 230.526 75.7215C229.116 75.7215 228.02 75.2517 227.08 74.4687C226.297 73.5291 225.827 72.4328 225.827 70.7102C225.827 69.1441 226.297 67.7347 227.08 66.9517C227.863 66.0121 228.959 65.5422 230.369 65.5422C231.622 65.5422 232.718 66.0121 233.501 66.7951C234.285 67.7347 234.754 68.9875 234.754 70.5536C234.754 70.7102 234.754 70.8668 234.754 71.0234H227.55C227.55 72.1196 227.863 72.9026 228.49 73.529C228.959 74.1555 229.742 74.3121 230.526 74.3121C231.152 74.3121 231.622 74.1555 232.092 73.8423C232.718 73.6857 233.032 73.2158 233.188 72.4328ZM217.369 65.8555H225.357V67.2649H222.225V75.7215H220.502V67.2649H217.369V65.8555ZM207.816 65.8555H209.538V69.9272H214.08V65.8555H215.803V75.5649H214.08V71.18H209.538V75.5649H207.816V65.8555ZM197.165 65.8555H198.888V73.3724L203.43 65.8555H205.153V75.5649H203.43V68.2045L198.888 75.5649H197.165V65.8555ZM187.142 62.2536H188.238C188.081 63.0366 187.925 63.663 187.455 63.9762C186.985 64.446 186.359 64.6026 185.575 64.6026C184.792 64.6026 184.166 64.446 183.696 63.9762C183.226 63.5064 182.913 63.0366 182.913 62.2536H184.009C184.166 62.7234 184.322 63.0366 184.479 63.1932C184.792 63.3498 185.106 63.5064 185.575 63.5064C186.045 63.5064 186.515 63.3498 186.672 63.1932C186.985 63.0366 187.142 62.7234 187.142 62.2536ZM181.503 65.8555H183.226V73.3724L187.768 65.8555H189.491V75.5649H187.768V68.2045L183.226 75.5649H181.503V65.8555ZM169.6 74.3121H171.323C172.419 74.3121 173.046 74.1555 173.516 73.9989C173.985 73.6857 174.142 73.3724 174.142 72.746C174.142 72.2762 173.985 71.963 173.672 71.6498C173.359 71.3366 172.576 71.18 171.48 71.18H169.443V74.3121H169.6ZM168.034 65.8555H169.757V69.6139H171.793C173.202 69.6139 174.142 69.9272 174.925 70.397C175.708 70.8668 176.022 71.6498 176.022 72.5894C176.022 73.3724 175.708 74.1555 175.082 74.6253C174.455 75.2517 173.516 75.5649 172.106 75.5649H168.034V65.8555ZM177.275 65.8555H178.997V75.5649H177.275V65.8555ZM157.54 65.8555H159.263V69.9272H163.805V65.8555H165.528V75.5649H163.805V71.18H159.263V75.5649H157.54V65.8555ZM147.203 65.8555H148.926V69.9272H153.468V65.8555H155.191V75.5649H153.468V71.18H148.926V75.5649H147.203V65.8555ZM137.963 69.7706H143.444C143.444 68.9875 143.131 68.3611 142.818 67.8913C142.348 67.2649 141.565 66.9517 140.782 66.9517C139.999 66.9517 139.372 67.2649 138.902 67.7347C138.276 68.2045 137.963 68.9875 137.963 69.7706ZM143.288 72.4328L145.011 72.5894C144.697 73.5291 144.228 74.3121 143.444 74.9385C142.661 75.5649 141.722 75.7215 140.625 75.7215C139.216 75.7215 138.119 75.2517 137.18 74.4687C136.396 73.5291 135.927 72.4328 135.927 70.7102C135.927 69.1441 136.396 67.7347 137.18 66.9517C137.963 66.0121 139.059 65.5422 140.469 65.5422C141.722 65.5422 142.818 66.0121 143.601 66.7951C144.384 67.7347 144.854 68.9875 144.854 70.5536C144.854 70.7102 144.854 70.8668 144.854 71.0234H137.649C137.649 72.1196 137.963 72.9026 138.589 73.529C139.059 74.1555 139.842 74.3121 140.625 74.3121C141.252 74.3121 141.722 74.1555 142.191 73.8423C142.818 73.6857 143.131 73.2158 143.288 72.4328ZM123.71 65.8555H126.216L128.722 73.6857L131.541 65.8555H133.891V75.5649H132.168V67.7347L129.349 75.5649H127.939L125.276 67.2649V75.5649H123.71V65.8555ZM114.783 70.8668C114.783 72.1196 115.096 73.0592 115.566 73.6857C116.036 74.3121 116.662 74.6253 117.445 74.6253C118.228 74.6253 118.855 74.3121 119.325 73.6857C119.795 73.0592 120.108 72.1196 120.108 70.8668C120.108 69.614 119.795 68.6743 119.325 68.0479C118.855 67.4215 118.228 67.1083 117.445 67.1083C116.819 67.1083 116.192 67.4215 115.566 68.0479C115.096 68.6743 114.783 69.614 114.783 70.8668ZM113.217 79.3234V65.8555H114.783V67.1083C115.096 66.6385 115.566 66.1687 116.036 66.0121C116.506 65.6988 116.975 65.6988 117.602 65.6988C118.385 65.6988 119.168 65.8555 119.795 66.3253C120.421 66.7951 120.891 67.4215 121.204 68.2045C121.517 68.9875 121.674 69.7706 121.674 70.7102C121.674 71.6498 121.517 72.5894 121.204 73.3724C120.891 74.1555 120.265 74.7819 119.638 75.2517C119.012 75.7215 118.228 75.8781 117.445 75.8781C116.819 75.8781 116.349 75.7215 116.036 75.5649C115.566 75.4083 115.253 75.0951 114.939 74.6253V79.3234H113.217ZM102.723 65.8555H104.446V73.3724L108.988 65.8555H110.711V75.5649H108.988V68.2045L104.446 75.5649H102.723V65.8555ZM93.4823 65.229C92.386 65.229 91.4463 65.5422 90.8198 66.1687C90.1933 66.7951 89.7234 67.5781 89.7234 68.6743C89.7234 69.7706 90.0367 70.5536 90.6632 71.18C91.2896 71.8064 92.2294 72.1196 93.3257 72.1196V65.229H93.4823ZM95.2052 65.229V72.2762C96.3015 72.2762 97.2412 71.8064 97.8677 71.3366C98.4942 70.7102 98.8075 69.9272 98.8075 68.8309C98.8075 67.7347 98.4942 66.9517 97.8677 66.3253C97.2412 65.6988 96.3015 65.3856 95.2052 65.229ZM93.4823 63.8196V62.097H95.2052V63.8196C96.928 63.9762 98.3376 64.446 99.2773 65.3856C100.217 66.3253 100.844 67.5781 100.844 68.8309C100.844 70.2404 100.374 71.3366 99.4339 72.2762C98.4942 73.2158 97.0846 73.8423 95.3618 73.8423V75.5649H93.639V73.8423C92.0727 73.8423 90.6632 73.2158 89.7234 72.4328C88.6271 71.4932 88.1572 70.2404 88.1572 68.8309C88.1572 67.2649 88.6271 66.1687 89.7234 65.229C90.5065 64.2894 91.9161 63.8196 93.4823 63.8196Z" fill="#4A4A4A"/>
<path d="M206.719 37.1969C205.466 37.1969 204.37 36.8837 203.587 36.4139C202.804 35.9441 202.177 35.3176 201.551 34.5346C201.081 33.7516 200.768 33.1252 200.454 32.3422C200.298 31.5591 200.141 31.0893 200.141 30.7761C200.141 29.8365 200.298 28.8969 200.768 28.1138C201.237 27.3308 201.707 26.7044 202.49 26.078C203.117 25.6082 203.9 25.1384 204.526 24.8252C205.31 24.5119 205.936 24.3553 206.563 24.3553C207.189 24.3553 207.972 24.5119 208.755 24.8252C209.538 25.1384 210.165 25.6082 210.791 26.078C211.418 26.5478 212.044 27.3308 212.358 27.9572C212.827 28.7403 212.984 29.5233 212.984 30.3063C212.984 31.5591 212.827 32.6554 212.358 33.595C211.888 34.5346 211.261 35.161 210.635 35.6308C210.008 36.1007 209.225 36.5705 208.442 36.7271C207.972 37.1969 207.346 37.1969 206.719 37.1969Z" fill="#E13DB0"/>
<path fill-rule="evenodd" clip-rule="evenodd" d="M341.413 31.4026C341.256 28.5837 339.69 26.2346 336.558 26.2346C333.425 26.2346 331.389 28.5837 330.763 31.4026H341.413ZM330.606 37.5101C331.389 41.2686 334.209 43.7743 338.281 43.7743C340.63 43.7743 343.136 43.1479 345.329 42.3648C345.485 42.3648 345.642 42.2082 345.642 42.2082C345.798 42.2082 345.955 42.2082 346.112 42.2082C346.895 42.2082 347.365 42.6781 347.678 43.4611L348.461 46.4366C348.461 46.7498 348.618 47.063 348.618 47.2196C348.618 48.1592 347.991 48.629 347.208 48.9422C344.232 50.3517 340.16 50.9781 336.871 50.9781C327.161 50.9781 321.366 44.7139 321.366 35.0044C321.366 25.7648 327.474 19.1874 336.871 19.1874C340.317 19.1874 343.606 20.4403 346.112 22.9459C349.087 26.078 349.871 29.9931 349.871 34.0648V35.0044C349.871 35.6309 349.714 36.4139 349.244 36.8837C348.774 37.3535 347.835 37.5101 347.208 37.5101H330.606ZM321.366 21.6931L320.739 25.9214C320.582 26.7044 320.113 27.3308 319.173 27.3308C319.016 27.3308 319.016 27.3308 318.86 27.3308H318.703H318.546C318.077 27.1742 317.607 27.1742 317.137 27.1742C315.257 27.1742 313.378 28.2705 312.125 29.5233V48.1592C312.125 49.5686 311.342 50.3517 309.932 50.3517H305.547C304.137 50.3517 303.354 49.5686 303.354 48.1592V22.1629C303.354 20.7535 304.137 19.9704 305.547 19.9704H309.306C310.559 19.9704 311.498 20.4403 311.498 21.8497V22.0063C313.221 20.2837 315.257 19.344 318.077 19.344C318.703 19.344 319.33 19.5006 319.956 19.6572C320.739 19.8138 321.052 20.2837 321.052 21.0667C321.366 21.2233 321.366 21.3799 321.366 21.6931ZM290.511 35.1611C290.511 31.0893 289.415 26.3912 284.403 26.3912C279.391 26.3912 278.138 30.7761 278.138 35.0044C278.138 37.5101 278.608 40.7988 280.488 42.6781C281.584 43.6177 282.837 44.0875 284.246 44.0875C289.102 43.9309 290.511 39.2328 290.511 35.1611ZM299.282 35.1611C299.282 44.4007 293.487 50.9781 284.09 50.9781C274.223 50.9781 269.211 44.4007 269.211 35.0044C269.211 25.7648 275.006 19.1874 284.403 19.1874C294.27 19.1874 299.282 25.6082 299.282 35.1611ZM249.79 26.3912H247.754C247.284 26.3912 246.657 26.3912 246.188 25.9214C245.718 25.4516 245.718 24.8252 245.718 24.1988V22.0063C245.718 20.9101 246.344 20.1271 247.441 20.1271H249.79V14.3327C249.79 12.9233 250.573 12.4534 251.826 12.1402L256.211 11.6704C256.368 11.6704 256.368 11.6704 256.525 11.6704C257.778 11.6704 258.404 12.4534 258.404 13.7063V20.1271H264.356C265.452 20.1271 266.235 20.5969 266.235 21.8497V24.6686C266.235 25.7648 265.452 26.5478 264.356 26.5478H258.404V39.3894C258.404 40.4856 258.404 42.0516 259.03 42.9913C259.5 43.7743 260.44 43.9309 261.223 43.9309C262.476 43.9309 263.572 43.6177 264.825 43.3045C265.139 43.3045 265.295 43.1479 265.609 43.1479C266.392 43.1479 266.862 43.6177 267.018 44.4007L267.645 47.3762C267.645 47.5328 267.801 47.6894 267.801 47.846C267.801 48.7856 267.331 49.2554 266.548 49.5686C264.356 50.5083 262.006 50.9781 259.657 50.9781C256.994 50.9781 253.862 50.3517 251.983 48.3158C251.513 47.846 251.199 47.3762 250.886 46.7498C250.416 45.6535 250.103 44.5573 249.946 43.4611C249.79 42.0516 249.79 40.4856 249.79 39.0762V26.3912ZM215.646 46.28L216.899 42.5215C217.213 41.7384 217.683 41.112 218.622 41.112C218.936 41.112 219.405 41.2686 219.719 41.2686C222.381 42.2082 225.357 42.9913 228.333 42.9913C231.152 42.9913 234.441 41.7384 234.441 38.4497C234.441 35.9441 232.562 34.6912 230.525 33.7516L222.851 29.8365C218.466 27.6441 215.49 24.0422 215.49 19.0308C215.49 11.3572 223.008 7.12891 229.899 7.12891C233.815 7.12891 237.26 7.75532 240.862 9.32137C241.646 9.63457 242.429 10.261 242.429 11.2006C242.429 11.5138 242.272 11.827 242.272 12.2968L240.862 15.8987C240.549 16.6818 240.079 17.3082 239.14 17.3082C238.67 17.3082 238.357 17.1516 238.043 16.995C235.851 16.0553 232.875 15.2723 230.525 15.2723C228.176 15.2723 225.2 16.2119 225.2 19.0308C225.2 21.2233 227.393 22.4761 228.959 23.2591L235.537 26.3912C240.393 28.7403 243.838 32.1856 243.838 37.8233C243.838 46.4366 236.79 51.2913 228.646 51.2913C224.887 51.2913 220.658 50.6649 217.056 49.412C216.273 49.0988 215.646 48.629 215.646 47.6894C215.49 46.9064 215.49 46.5932 215.646 46.28ZM173.359 29.0535V29.2101C173.359 29.5233 173.359 29.9931 173.359 30.3063C173.359 31.4026 173.359 32.3422 173.359 33.4384C173.359 35.0044 173.359 36.5705 173.359 38.1365V48.0026C173.359 49.412 172.732 50.1951 171.166 50.1951H167.251C165.841 50.1951 165.058 49.412 165.058 48.0026V31.7158C165.058 30.4629 164.901 28.7403 164.118 27.6441C163.492 26.861 162.395 26.7044 161.456 26.7044C159.263 26.7044 157.227 27.9573 155.504 29.3667V48.0026C155.504 49.412 154.721 50.1951 153.311 50.1951H149.083C147.673 50.1951 146.89 49.412 146.89 48.0026V22.0063C146.89 20.7535 147.673 19.9704 149.083 19.9704H152.998C154.251 19.9704 155.034 20.4403 155.191 21.6931V21.8497C157.54 20.1271 160.359 19.1874 163.335 19.1874C166.311 19.1874 169.287 20.2837 171.01 22.6327C173.829 20.2837 177.431 19.1874 181.033 19.1874C183.069 19.1874 184.949 19.6572 186.672 20.5969C188.081 21.3799 189.178 22.6327 189.961 23.8856C191.37 26.5478 191.527 29.8365 191.527 32.812V47.846C191.527 49.2554 190.9 50.0384 189.334 50.0384H185.105C183.696 50.0384 182.913 49.2554 182.913 47.846V31.7158C182.913 30.4629 182.756 28.7403 181.973 27.8007C181.347 27.0176 180.25 26.861 179.154 26.861C177.431 26.861 175.082 27.8007 173.359 29.0535ZM134.83 48.1592C132.168 49.8819 129.192 50.9781 126.059 50.9781C118.855 50.9781 116.036 46.2799 116.036 39.7026V22.0063C116.036 20.5969 116.975 19.9704 118.228 19.9704H122.457C123.867 19.9704 124.65 20.5969 124.65 22.0063V38.2931C124.65 39.546 124.806 41.2686 125.589 42.2082C126.216 42.9913 127.312 43.1479 128.252 43.1479C130.288 43.1479 132.794 42.0516 134.517 40.6422V22.0063C134.517 20.5969 135.3 19.9704 136.71 19.9704H140.938C142.348 19.9704 143.131 20.5969 143.131 22.0063V47.846C143.131 49.412 142.505 50.1951 140.938 50.1951H137.179C136.083 50.1951 135.143 49.5686 134.987 48.3158L134.83 48.1592ZM96.9279 42.5215H111.337C112.59 42.5215 113.53 43.3045 113.53 44.5573V48.1592C113.53 49.5686 112.747 50.3517 111.337 50.3517H90.1932C88.627 50.3517 88.0005 49.5686 88.0005 48.0026V9.94778C88.0005 8.69495 88.7836 7.75532 90.1932 7.75532H94.8918C96.458 7.75532 97.0845 8.53834 97.0845 9.94778V42.5215H96.9279Z" fill="#071F5D"/>
<path fill-rule="evenodd" clip-rule="evenodd" d="M38.0382 27.4875C36.9419 24.8252 34.9058 19.5006 33.3396 17.4648C31.6168 15.2723 27.7013 14.1761 25.1953 13.7063H25.0387H24.8821C23.4725 13.3931 21.9063 13.0799 20.4967 13.0799C15.9547 13.0799 13.6054 14.0195 13.6054 18.8742C13.6054 21.2233 14.3885 23.5723 15.3282 25.6082C16.8944 29.3667 18.9305 32.812 21.4364 35.9441C22.0629 36.7271 24.4122 39.546 25.8218 40.329C28.1711 35.6309 31.6168 31.7158 36.472 29.3667L38.3515 28.2705L38.0382 27.4875ZM42.267 26.3912L42.5802 29.0535C42.5802 30.1497 42.267 30.9327 41.3273 31.5592L38.1949 33.2818C34.436 35.0045 31.6168 38.1365 29.4241 42.3648C28.4844 44.0875 27.5446 44.8705 25.9784 44.8705C23.6291 44.8705 20.9666 42.8347 17.6775 38.6063C14.8583 35.1611 12.509 31.246 10.9428 27.1742C9.53322 23.8856 8.90674 21.0667 8.90674 18.561C8.90674 11.6704 12.6656 8.38174 20.1834 8.38174C21.7497 8.38174 23.4725 8.53835 25.6652 9.16477C30.8337 10.1044 34.4359 11.9836 36.472 14.4893C38.0382 16.212 39.9177 20.1271 42.267 26.3912Z" fill="#41FFE5"/>
<path fill-rule="evenodd" clip-rule="evenodd" d="M38.1951 55.0498C38.1951 55.8328 38.3517 56.6158 38.8216 57.2422C40.0745 58.9649 43.8334 59.2781 45.8695 59.2781L50.8814 58.8083C54.327 58.3385 57.4594 56.4592 60.2786 54.4234C61.0617 53.797 63.7243 51.7611 64.3508 50.3517C59.8087 47.846 56.2065 44.2441 54.327 39.3894L53.8572 38.1365H53.3873C50.8814 38.9196 44.7731 40.7988 43.0503 42.3648C40.8576 44.0875 39.6047 48.3158 38.8216 50.9781C38.5083 52.2309 38.3517 53.6403 38.1951 55.0498ZM57.1462 34.6912L58.3992 37.9799C59.8087 41.7384 62.6279 44.5573 66.5434 46.7498C68.1096 47.6894 68.8928 48.629 68.8928 50.0384C68.8928 52.5441 66.8567 55.2064 62.9412 58.1819C58.869 61.1573 55.2667 62.88 51.5078 63.3498L46.1827 63.8196C38.0384 63.8196 33.9663 60.8441 33.9663 54.8932C34.1229 53.0139 34.2796 51.2913 34.5928 49.8818C36.0024 44.5573 37.8818 40.9554 40.2311 39.0762C41.954 37.5101 46.1827 35.7875 52.4476 33.9082L54.7969 33.595C55.8932 33.4384 56.6763 33.9082 57.1462 34.6912Z" fill="#CD008D"/>
<path fill-rule="evenodd" clip-rule="evenodd" d="M4.67824 64.9158C4.83486 65.229 5.1481 65.3856 5.30472 65.5422C7.02755 66.9517 9.37686 68.9875 11.2563 69.9272H11.4129H11.5696C12.8225 70.7102 14.0755 71.0234 15.6417 71.0234C18.1476 71.0234 21.7499 69.4573 24.0992 68.5177C25.9787 67.7347 29.1111 66.1687 29.1111 63.8196C28.9545 60.5309 24.8823 56.3026 22.8463 54.2667C21.1234 52.7007 18.6175 51.4479 16.4248 50.5082C14.0755 49.5686 11.5696 48.7856 9.06362 48.7856C8.75038 48.7856 8.28052 48.7856 7.81066 48.9422V49.0988C8.43714 53.4837 8.43714 58.0252 6.24445 62.0969L4.67824 64.9158ZM2.1723 60.0611C3.58189 57.2422 3.89513 53.7969 3.26865 49.8818C2.64216 46.4365 4.52162 44.5573 8.907 44.5573C11.5696 44.5573 14.5454 45.1837 17.991 46.5931C21.1234 47.846 23.786 49.412 25.8221 51.2913C30.8339 56.146 33.4965 60.3743 33.4965 63.9762C33.4965 67.7347 30.9906 70.7102 25.6654 72.9026C21.2801 74.7819 17.991 75.7215 15.4851 75.7215C13.449 75.7215 11.4129 75.2517 9.37686 73.9989C7.49741 73.0592 5.1481 71.3366 2.32892 68.8309C0.919336 67.4215 0.13623 66.3253 0.13623 65.0724C0.13623 64.446 0.292852 63.8196 0.762715 62.88L2.1723 60.0611Z" fill="#FFB232"/>
<path d="M342.04 65.8555H343.763V69.9272H348.305V65.8555H350.027V75.5649H348.305V71.18H343.763V75.5649H342.04V65.8555ZM331.389 65.8555H333.112V73.3724L337.654 65.8555H339.377V75.5649H337.654V68.2045L333.112 75.5649H331.389V65.8555ZM324.968 71.18V69.9272C325.594 69.9272 326.064 69.9272 326.378 69.7706C326.691 69.7706 326.847 69.614 327.161 69.3007C327.317 68.9875 327.474 68.6743 327.474 68.3611C327.474 67.8913 327.317 67.5781 327.004 67.2649C326.691 66.9517 326.378 66.7951 325.908 66.7951C324.968 66.7951 324.342 67.2649 323.872 68.3611L322.305 68.0479C322.775 66.1687 324.028 65.3856 325.908 65.3856C327.004 65.3856 327.787 65.6989 328.414 66.1687C329.04 66.7951 329.353 67.4215 329.353 68.2045C329.353 68.9875 329.04 69.614 328.257 70.0838C328.727 70.397 329.04 70.7102 329.353 71.0234C329.667 71.4932 329.667 71.963 329.667 72.4328C329.667 73.3724 329.353 73.9989 328.727 74.6253C328.1 75.0951 327.161 75.4083 326.064 75.4083C323.872 75.4083 322.619 74.4687 322.149 72.4328L323.715 72.1196C323.872 72.746 324.185 73.2158 324.498 73.529C324.968 73.8423 325.438 73.9989 325.908 73.9989C326.534 73.9989 327.004 73.8423 327.317 73.529C327.631 73.2158 327.944 72.746 327.944 72.2762C327.944 71.963 327.787 71.4932 327.631 71.3366C327.474 71.0234 327.161 70.8668 326.847 70.8668C326.534 70.8668 326.064 70.7102 325.438 70.7102C325.281 71.18 325.125 71.18 324.968 71.18ZM318.86 70.7102C318.233 71.0234 317.294 71.18 316.197 71.3366C315.571 71.4932 315.101 71.4932 314.788 71.6498C314.474 71.8064 314.318 71.963 314.161 72.1196C314.005 72.4328 314.005 72.5894 314.005 72.9026C314.005 73.3724 314.161 73.6857 314.474 73.9989C314.788 74.3121 315.257 74.4687 315.884 74.4687C316.51 74.4687 317.137 74.3121 317.607 73.9989C318.077 73.6857 318.547 73.3724 318.703 72.9026C318.86 72.5894 319.016 71.963 319.016 71.18L318.86 70.7102ZM319.016 74.4687C318.39 74.9385 317.763 75.4083 317.294 75.5649C316.667 75.7215 316.041 75.8781 315.414 75.8781C314.318 75.8781 313.535 75.5649 312.908 75.0951C312.282 74.6253 311.968 73.8423 311.968 73.0592C311.968 72.5894 312.125 72.1196 312.282 71.8064C312.438 71.3366 312.752 71.0234 313.065 70.8668C313.378 70.5536 313.848 70.397 314.318 70.397C314.631 70.2404 315.101 70.2404 315.727 70.0838C317.137 69.9272 318.077 69.7706 318.703 69.4573C318.703 69.3007 318.703 69.1441 318.703 68.9875C318.703 68.3611 318.547 67.8913 318.233 67.5781C317.763 67.2649 317.137 66.9517 316.354 66.9517C315.571 66.9517 314.944 67.1083 314.631 67.4215C314.318 67.7347 314.005 68.2045 313.848 68.8309L312.282 68.6743C312.438 68.0479 312.595 67.4215 313.065 66.9517C313.378 66.4819 313.848 66.1687 314.474 66.0121C315.101 65.8555 315.884 65.6988 316.667 65.6988C317.45 65.6988 318.233 65.8555 318.703 66.0121C319.173 66.1687 319.643 66.4819 319.799 66.7951C320.113 67.1083 320.269 67.4215 320.269 67.8913C320.269 68.2045 320.426 68.6743 320.426 69.4573V71.6498C320.426 73.2158 320.426 74.1555 320.583 74.6253C320.583 75.0951 320.739 75.4083 321.052 75.8781H319.33C319.173 75.2517 319.016 74.9385 319.016 74.4687ZM306.173 65.8555H311.812V67.2649H307.896V75.7215H306.173V65.8555ZM301.945 70.7102C301.318 71.0234 300.378 71.18 299.282 71.3366C298.656 71.4932 298.186 71.4932 297.873 71.6498C297.559 71.8064 297.403 71.963 297.246 72.1196C297.089 72.4328 297.089 72.5894 297.089 72.9026C297.089 73.3724 297.246 73.6857 297.559 73.9989C297.873 74.3121 298.342 74.4687 298.969 74.4687C299.595 74.4687 300.222 74.3121 300.692 73.9989C301.162 73.6857 301.631 73.3724 301.788 72.9026C301.945 72.5894 302.101 71.963 302.101 71.18L301.945 70.7102ZM301.945 74.4687C301.318 74.9385 300.692 75.4083 300.222 75.5649C299.595 75.7215 298.969 75.8781 298.342 75.8781C297.246 75.8781 296.463 75.5649 295.837 75.0951C295.21 74.6253 294.897 73.8423 294.897 73.0592C294.897 72.5894 295.053 72.1196 295.21 71.8064C295.367 71.3366 295.68 71.0234 295.993 70.8668C296.306 70.5536 296.776 70.397 297.246 70.397C297.559 70.2404 298.029 70.2404 298.656 70.0838C300.065 69.9272 301.005 69.7706 301.631 69.4573C301.631 69.3007 301.631 69.1441 301.631 68.9875C301.631 68.3611 301.475 67.8913 301.162 67.5781C300.692 67.2649 300.065 66.9517 299.282 66.9517C298.499 66.9517 297.873 67.1083 297.559 67.4215C297.246 67.7347 296.933 68.2045 296.776 68.8309L295.21 68.6743C295.367 68.0479 295.523 67.4215 295.993 66.9517C296.306 66.4819 296.776 66.1687 297.403 66.0121C298.029 65.8555 298.812 65.6988 299.595 65.6988C300.379 65.6988 301.162 65.8555 301.631 66.0121C302.101 66.1687 302.571 66.4819 302.728 66.7951C303.041 67.1083 303.198 67.4215 303.198 67.8913C303.198 68.2045 303.354 68.6743 303.354 69.4573V71.6498C303.354 73.2158 303.354 74.1555 303.511 74.6253C303.511 75.0951 303.668 75.4083 303.981 75.8781H302.258C302.101 75.2517 302.101 74.9385 301.945 74.4687ZM282.68 65.8555H285.186L287.692 73.6857L290.511 65.8555H292.861V75.5649H291.138V67.7347L288.319 75.5649H286.909L284.247 67.2649V75.5649H282.68V65.8555ZM275.789 71.6498V69.9272H280.958V71.6498H275.789ZM266.862 65.8555H274.849V67.2649H271.717V75.7215H269.994V67.2649H266.862V65.8555ZM259.187 69.7706H264.669C264.669 68.9875 264.356 68.3611 264.042 67.8913C263.573 67.2649 262.79 66.9517 262.006 66.9517C261.223 66.9517 260.597 67.2649 260.127 67.7347C259.5 68.2045 259.187 68.9875 259.187 69.7706ZM264.669 72.4328L266.392 72.5894C266.079 73.5291 265.609 74.3121 264.826 74.9385C264.042 75.5649 263.103 75.7215 262.006 75.7215C260.597 75.7215 259.5 75.2517 258.561 74.4687C257.778 73.5291 257.308 72.4328 257.308 70.7102C257.308 69.1441 257.778 67.7347 258.561 66.9517C259.344 66.0121 260.44 65.5422 261.85 65.5422C263.103 65.5422 264.199 66.0121 264.982 66.7951C265.765 67.7347 266.235 68.9875 266.235 70.5536C266.235 70.7102 266.235 70.8668 266.235 71.0234H259.031C259.031 72.1196 259.344 72.9026 259.97 73.529C260.44 74.1555 261.223 74.3121 262.006 74.3121C262.633 74.3121 263.103 74.1555 263.573 73.8423C264.042 73.6857 264.356 73.2158 264.669 72.4328ZM247.597 65.8555H249.32V69.9272H253.862V65.8555H255.585V75.5649H253.862V71.18H249.32V75.5649H247.597V65.8555ZM238.513 70.8668C238.513 72.1196 238.827 73.0592 239.296 73.6857C239.766 74.3121 240.393 74.6253 241.176 74.6253C241.959 74.6253 242.585 74.3121 243.055 73.6857C243.525 73.0592 243.838 72.1196 243.838 70.8668C243.838 69.614 243.525 68.6743 243.055 68.0479C242.585 67.4215 241.959 67.1083 241.176 67.1083C240.549 67.1083 239.923 67.4215 239.296 68.0479C238.827 68.6743 238.513 69.614 238.513 70.8668ZM237.104 79.3234V65.8555H238.67V67.1083C238.983 66.6385 239.453 66.1687 239.923 66.0121C240.393 65.6988 240.863 65.6988 241.489 65.6988C242.272 65.6988 243.055 65.8555 243.682 66.3253C244.308 66.7951 244.778 67.4215 245.091 68.2045C245.405 68.9875 245.561 69.7706 245.561 70.7102C245.561 71.6498 245.405 72.5894 245.091 73.3724C244.778 74.1555 244.152 74.7819 243.525 75.2517C242.899 75.7215 242.116 75.8781 241.332 75.8781C240.706 75.8781 240.236 75.7215 239.923 75.5649C239.453 75.4083 239.14 75.0951 238.827 74.6253V79.3234H237.104ZM227.863 69.7706H233.345C233.345 68.9875 233.032 68.3611 232.718 67.8913C232.248 67.2649 231.465 66.9517 230.682 66.9517C229.899 66.9517 229.273 67.2649 228.803 67.7347C228.176 68.2045 227.863 68.9875 227.863 69.7706ZM233.188 72.4328L234.911 72.5894C234.598 73.5291 234.128 74.3121 233.345 74.9385C232.562 75.5649 231.622 75.7215 230.526 75.7215C229.116 75.7215 228.02 75.2517 227.08 74.4687C226.297 73.5291 225.827 72.4328 225.827 70.7102C225.827 69.1441 226.297 67.7347 227.08 66.9517C227.863 66.0121 228.959 65.5422 230.369 65.5422C231.622 65.5422 232.718 66.0121 233.501 66.7951C234.285 67.7347 234.754 68.9875 234.754 70.5536C234.754 70.7102 234.754 70.8668 234.754 71.0234H227.55C227.55 72.1196 227.863 72.9026 228.49 73.529C228.959 74.1555 229.742 74.3121 230.526 74.3121C231.152 74.3121 231.622 74.1555 232.092 73.8423C232.718 73.6857 233.032 73.2158 233.188 72.4328ZM217.369 65.8555H225.357V67.2649H222.225V75.7215H220.502V67.2649H217.369V65.8555ZM207.816 65.8555H209.538V69.9272H214.08V65.8555H215.803V75.5649H214.08V71.18H209.538V75.5649H207.816V65.8555ZM197.165 65.8555H198.888V73.3724L203.43 65.8555H205.153V75.5649H203.43V68.2045L198.888 75.5649H197.165V65.8555ZM187.142 62.2536H188.238C188.081 63.0366 187.925 63.663 187.455 63.9762C186.985 64.446 186.359 64.6026 185.575 64.6026C184.792 64.6026 184.166 64.446 183.696 63.9762C183.226 63.5064 182.913 63.0366 182.913 62.2536H184.009C184.166 62.7234 184.322 63.0366 184.479 63.1932C184.792 63.3498 185.106 63.5064 185.575 63.5064C186.045 63.5064 186.515 63.3498 186.672 63.1932C186.985 63.0366 187.142 62.7234 187.142 62.2536ZM181.503 65.8555H183.226V73.3724L187.768 65.8555H189.491V75.5649H187.768V68.2045L183.226 75.5649H181.503V65.8555ZM169.6 74.3121H171.323C172.419 74.3121 173.046 74.1555 173.516 73.9989C173.985 73.6857 174.142 73.3724 174.142 72.746C174.142 72.2762 173.985 71.963 173.672 71.6498C173.359 71.3366 172.576 71.18 171.48 71.18H169.443V74.3121H169.6ZM168.034 65.8555H169.757V69.6139H171.793C173.202 69.6139 174.142 69.9272 174.925 70.397C175.708 70.8668 176.022 71.6498 176.022 72.5894C176.022 73.3724 175.708 74.1555 175.082 74.6253C174.455 75.2517 173.516 75.5649 172.106 75.5649H168.034V65.8555ZM177.275 65.8555H178.997V75.5649H177.275V65.8555ZM157.54 65.8555H159.263V69.9272H163.805V65.8555H165.528V75.5649H163.805V71.18H159.263V75.5649H157.54V65.8555ZM147.203 65.8555H148.926V69.9272H153.468V65.8555H155.191V75.5649H153.468V71.18H148.926V75.5649H147.203V65.8555ZM137.963 69.7706H143.444C143.444 68.9875 143.131 68.3611 142.818 67.8913C142.348 67.2649 141.565 66.9517 140.782 66.9517C139.999 66.9517 139.372 67.2649 138.902 67.7347C138.276 68.2045 137.963 68.9875 137.963 69.7706ZM143.288 72.4328L145.011 72.5894C144.697 73.5291 144.228 74.3121 143.444 74.9385C142.661 75.5649 141.722 75.7215 140.625 75.7215C139.216 75.7215 138.119 75.2517 137.18 74.4687C136.396 73.5291 135.927 72.4328 135.927 70.7102C135.927 69.1441 136.396 67.7347 137.18 66.9517C137.963 66.0121 139.059 65.5422 140.469 65.5422C141.722 65.5422 142.818 66.0121 143.601 66.7951C144.384 67.7347 144.854 68.9875 144.854 70.5536C144.854 70.7102 144.854 70.8668 144.854 71.0234H137.649C137.649 72.1196 137.963 72.9026 138.589 73.529C139.059 74.1555 139.842 74.3121 140.625 74.3121C141.252 74.3121 141.722 74.1555 142.191 73.8423C142.818 73.6857 143.131 73.2158 143.288 72.4328ZM123.71 65.8555H126.216L128.722 73.6857L131.541 65.8555H133.891V75.5649H132.168V67.7347L129.349 75.5649H127.939L125.276 67.2649V75.5649H123.71V65.8555ZM114.783 70.8668C114.783 72.1196 115.096 73.0592 115.566 73.6857C116.036 74.3121 116.662 74.6253 117.445 74.6253C118.228 74.6253 118.855 74.3121 119.325 73.6857C119.795 73.0592 120.108 72.1196 120.108 70.8668C120.108 69.614 119.795 68.6743 119.325 68.0479C118.855 67.4215 118.228 67.1083 117.445 67.1083C116.819 67.1083 116.192 67.4215 115.566 68.0479C115.096 68.6743 114.783 69.614 114.783 70.8668ZM113.217 79.3234V65.8555H114.783V67.1083C115.096 66.6385 115.566 66.1687 116.036 66.0121C116.506 65.6988 116.975 65.6988 117.602 65.6988C118.385 65.6988 119.168 65.8555 119.795 66.3253C120.421 66.7951 120.891 67.4215 121.204 68.2045C121.517 68.9875 121.674 69.7706 121.674 70.7102C121.674 71.6498 121.517 72.5894 121.204 73.3724C120.891 74.1555 120.265 74.7819 119.638 75.2517C119.012 75.7215 118.228 75.8781 117.445 75.8781C116.819 75.8781 116.349 75.7215 116.036 75.5649C115.566 75.4083 115.253 75.0951 114.939 74.6253V79.3234H113.217ZM102.723 65.8555H104.446V73.3724L108.988 65.8555H110.711V75.5649H108.988V68.2045L104.446 75.5649H102.723V65.8555ZM93.4823 65.229C92.386 65.229 91.4463 65.5422 90.8198 66.1687C90.1933 66.7951 89.7234 67.5781 89.7234 68.6743C89.7234 69.7706 90.0367 70.5536 90.6632 71.18C91.2896 71.8064 92.2294 72.1196 93.3257 72.1196V65.229H93.4823ZM95.2052 65.229V72.2762C96.3015 72.2762 97.2412 71.8064 97.8677 71.3366C98.4942 70.7102 98.8075 69.9272 98.8075 68.8309C98.8075 67.7347 98.4942 66.9517 97.8677 66.3253C97.2412 65.6988 96.3015 65.3856 95.2052 65.229ZM93.4823 63.8196V62.097H95.2052V63.8196C96.928 63.9762 98.3376 64.446 99.2773 65.3856C100.217 66.3253 100.844 67.5781 100.844 68.8309C100.844 70.2404 100.374 71.3366 99.4339 72.2762C98.4942 73.2158 97.0846 73.8423 95.3618 73.8423V75.5649H93.639V73.8423C92.0727 73.8423 90.6632 73.2158 89.7234 72.4328C88.6271 71.4932 88.1572 70.2404 88.1572 68.8309C88.1572 67.2649 88.6271 66.1687 89.7234 65.229C90.5065 64.2894 91.9161 63.8196 93.4823 63.8196Z" fill="#4A4A4A"/>
</g>
<defs>
<clipPath id="clip0_203_518">
<rect width="350" height="79" fill="white"/>
</clipPath>
</defs>
</svg>
