<svg width="60" height="60" viewBox="0 0 60 60" fill="none" xmlns="http://www.w3.org/2000/svg">
<path d="M30 0C13.4306 0 0 13.4325 0 30C0 46.5694 13.4306 60 30 60C46.5675 60 60 46.5694 60 30C60 13.4325 46.5675 0 30 0ZM30 56.2499C15.525 56.2499 3.69192 44.475 3.69192 30C3.69192 15.525 15.525 3.75006 30 3.75006C44.475 3.75006 56.2499 15.525 56.2499 30C56.2499 44.475 44.475 56.2499 30 56.2499Z" fill="white"/>
<path d="M31.3106 21.1743C30.5905 20.4617 29.353 20.4598 28.6313 21.1743L15.5082 34.1099C14.7694 34.843 14.7694 36.0299 15.5082 36.7612C16.2488 37.4943 17.4469 37.4943 18.1875 36.7612L29.9718 25.1455L41.7561 36.763C42.4949 37.4962 43.6948 37.4962 44.4354 36.763C45.1742 36.0299 45.1742 34.843 44.4354 34.1118L31.3106 21.1743Z" fill="white"/>
</svg>
